<?xml version="1.0" encoding="utf-8"?>
<!-- Generator: Adobe Illustrator 20.1.0, SVG Export Plug-In . SVG Version: 6.00 Build 0)  -->
<svg version="1.1" id="Layer_1" xmlns="http://www.w3.org/2000/svg" xmlns:xlink="http://www.w3.org/1999/xlink" x="0px" y="0px"
	 viewBox="0 0 300 233" style="enable-background:new 0 0 300 233;" xml:space="preserve">
<style type="text/css">
	.st0{fill:#1A4B73;}
</style>
<g>
	<g>
		<path class="st0" d="M272.2,233.4H21c6.9-42.4,28.5-74.1,64.2-95.8c2.6-1.6,3.7-0.2,5.2,1.3c12.2,11.6,26.5,18.9,42.8,21.6
			c9.1,1.5,17.9,1.6,26.2,0.3c1.2,7.2,3.6,14,7.1,20.4c4.2,7.5,9.6,13.8,16.3,19c6.7,5.2,14.2,8.9,22.4,10.7c3,0.7,6.1,1,9.1,1.5
			c0.3,0,0.5,0.1,0.7,0.2h7.3c1.5-0.2,3-0.4,4.5-0.6c7.8-1.1,15-3.7,21.8-7.7c4.4-2.6,8.4-5.7,12-9.4c5.1,10.8,8.9,22.6,11.3,35.4
			C272.2,231.2,272.1,232.3,272.2,233.4z"/>
		<path class="st0" d="M176.8,173.3c-0.8-1.6-1.6-3.2-2.2-4.9C175.2,170,176,171.7,176.8,173.3z"/>
		<path class="st0" d="M218.8,75.3c0,4.2-0.3,8.3-0.9,12.2h-2.8c-1.8,0.3-3.7,0.5-5.5,0.8c-8.1,1.3-15.7,4.2-22.7,8.7
			c-6.5,4.2-12,9.4-16.5,15.8c-5,7-8.5,14.7-10.3,23.2c-0.7,3.1-1,6.3-1.4,9.4c0,0.3-0.1,0.5-0.2,0.8v2.7c-4.1,0.7-8.3,1.1-12.5,1.1
			c-37.6-0.3-72.5-33.4-71.6-76.7C75.3,33.4,107.8-0.7,148.3,0C187,0.7,218.8,34.1,218.8,75.3z"/>
		<path class="st0" d="M172.2,139.3c0-0.1,0.1-0.3,0.1-0.4c-0.1,0.4-0.2,0.8-0.3,1.2c-0.1,0.4-0.2,0.8-0.2,1.2
			c0.1-0.5,0.2-1,0.3-1.6C172.2,139.6,172.2,139.4,172.2,139.3z"/>
		<path class="st0" d="M176.7,126.8c-0.5,0.9-0.9,1.9-1.4,2.9C175.8,128.7,176.2,127.7,176.7,126.8z"/>
	</g>
	<g>
		<path class="st0" d="M175.3,129.6c0.4-1,0.9-1.9,1.4-2.9C176.2,127.7,175.8,128.7,175.3,129.6z M174.6,168.3
			c0.7,1.7,1.4,3.3,2.2,4.9C176,171.7,175.2,170,174.6,168.3z M171.8,141.3c0.1-0.4,0.1-0.8,0.2-1.2c0-0.1,0-0.2,0.1-0.4
			C172,140.3,171.9,140.8,171.8,141.3z"/>
		<path class="st0" d="M172.2,139.3c0,0.2-0.1,0.3-0.1,0.5c-0.1,0.5-0.2,1.1-0.3,1.6c0.1-0.4,0.1-0.8,0.2-1.2
			c0.1-0.4,0.2-0.8,0.3-1.2C172.3,139,172.3,139.1,172.2,139.3z M175.3,129.6c0.4-1,0.9-1.9,1.4-2.9
			C176.2,127.7,175.8,128.7,175.3,129.6z M174.6,168.3c0.7,1.7,1.4,3.3,2.2,4.9C176,171.7,175.2,170,174.6,168.3z"/>
		<path class="st0" d="M218.7,100.5c-0.4,0-0.8,0-1.2,0c-0.4,0-0.8,0-1.2,0c-0.6,0-1.2,0.1-1.8,0.1c0,0-0.1,0-0.2,0
			c-0.3,0-0.6,0-0.9,0.1c0,0,0,0-0.1,0c-0.3,0-0.7,0.1-1,0.1c-0.3,0.1-0.7,0.1-1,0.2c-1,0.2-2.1,0.4-3.1,0.6c-0.3,0.1-0.7,0.2-1,0.3
			c-0.3,0.1-0.7,0.2-1,0.3c-0.7,0.2-1.3,0.4-2,0.6c-0.3,0.1-0.7,0.2-1,0.3c-0.3,0.1-0.7,0.2-1,0.4c-0.6,0.3-1.3,0.5-1.9,0.8
			c-1,0.4-1.9,0.9-2.8,1.3c-0.3,0.2-0.6,0.3-0.9,0.5c-0.3,0.2-0.6,0.3-0.9,0.5c-0.7,0.4-1.4,0.9-2.1,1.3c-0.5,0.3-0.9,0.6-1.4,0.9
			c-0.5,0.4-1.1,0.8-1.6,1.2c-0.6,0.5-1.2,0.9-1.8,1.4c-0.2,0.2-0.5,0.4-0.7,0.6c-0.2,0.2-0.4,0.3-0.6,0.5c-0.2,0.2-0.5,0.4-0.7,0.6
			c-0.1,0.1-0.2,0.2-0.3,0.3c-0.5,0.5-1,1-1.5,1.5c-0.9,0.9-1.7,1.8-2.4,2.7c-0.2,0.2-0.4,0.4-0.5,0.7c-0.1,0.2-0.3,0.3-0.4,0.5
			c-0.2,0.3-0.4,0.5-0.6,0.8c-0.2,0.3-0.4,0.5-0.6,0.8c-0.4,0.6-0.8,1.1-1.2,1.7c-0.4,0.6-0.8,1.2-1.1,1.8c-0.2,0.3-0.4,0.6-0.5,0.9
			s-0.3,0.6-0.5,0.9c-0.2,0.3-0.3,0.6-0.5,0.9c-0.5,0.9-0.9,1.9-1.4,2.9c-0.4,1-0.8,2-1.2,3c-0.2,0.7-0.5,1.3-0.7,2
			c-0.1,0.3-0.2,0.7-0.3,1c-0.1,0.3-0.2,0.7-0.3,1c-0.1,0.3-0.2,0.7-0.3,1c-0.1,0.4-0.2,0.8-0.3,1.2c-0.1,0.4-0.2,0.8-0.3,1.2
			c-0.1,0.4-0.2,0.8-0.2,1.2c-0.1,0.4-0.1,0.8-0.2,1.2c-0.1,0.5-0.2,1.1-0.2,1.6c0,0.4-0.1,0.7-0.1,1.1c0,0.4-0.1,0.8-0.1,1.2
			c0,0.7-0.1,1.5-0.1,2.2c0,0.4,0,0.8,0,1.2v0.1c0,0.6,0,1.2,0,1.8c0,0.1,0,0.2,0,0.3c0,0.6,0.1,1.1,0.1,1.7c0,0.1,0,0.3,0,0.4
			c0,0.6,0.1,1.2,0.2,1.7c0.1,0.6,0.2,1.3,0.3,1.9c0.1,0.4,0.1,0.9,0.2,1.3c0.1,0.7,0.3,1.3,0.4,2c0.1,0.4,0.2,0.7,0.3,1.1
			c0.2,0.7,0.4,1.4,0.6,2.1c0.1,0.4,0.2,0.7,0.3,1c0.1,0.3,0.2,0.6,0.3,0.9c0.1,0.4,0.3,0.7,0.4,1.1c0.1,0.3,0.3,0.7,0.4,1
			c0.7,1.7,1.4,3.3,2.2,4.9c0.2,0.3,0.3,0.7,0.5,1c0.2,0.3,0.3,0.6,0.5,0.9c0.2,0.3,0.3,0.6,0.5,0.9c0.3,0.5,0.6,1,0.9,1.5
			c1,1.6,2.2,3.1,3.4,4.5c0.4,0.5,0.9,1.1,1.4,1.6c0.2,0.3,0.5,0.5,0.7,0.8c0.8,0.8,1.6,1.6,2.4,2.4c0.2,0.2,0.4,0.4,0.6,0.6
			c1.6,1.4,3.3,2.7,5,3.9c0.3,0.2,0.5,0.4,0.8,0.5c0.3,0.2,0.6,0.4,0.9,0.6c1.2,0.8,2.4,1.5,3.7,2.1c0.3,0.2,0.7,0.3,1,0.5
			c0.5,0.2,0.9,0.4,1.4,0.6c0.3,0.1,0.5,0.2,0.8,0.3c0.4,0.1,0.7,0.3,1.1,0.4c0.7,0.3,1.5,0.5,2.2,0.8c0.4,0.1,0.8,0.2,1.1,0.4
			c0.4,0.1,0.8,0.2,1.1,0.3c2.5,0.7,5.1,1.1,7.7,1.4c0.3,0,0.6,0,0.8,0.1c0.4,0,0.7,0,1.1,0.1c0.7,0,1.5,0,2.2,0h0.1
			c1.5,0,2.9-0.1,4.3-0.2c0.3,0,0.5,0,0.8-0.1c1-0.1,2-0.3,2.9-0.4c0.3,0,0.6-0.1,0.9-0.2c0.5-0.1,0.9-0.2,1.3-0.3
			c0.3-0.1,0.6-0.2,1-0.2c0.5-0.1,1-0.3,1.5-0.4c0.4-0.1,0.8-0.2,1.2-0.4c0.4-0.1,0.8-0.3,1.2-0.4c1.9-0.7,3.7-1.5,5.5-2.3
			c0.2-0.1,0.5-0.2,0.7-0.4c1.5-0.8,3-1.7,4.5-2.7c0.2-0.2,0.5-0.3,0.7-0.5c0.9-0.6,1.8-1.3,2.7-2c0.3-0.3,0.6-0.5,0.9-0.8
			c1.9-1.6,3.7-3.4,5.3-5.3c1.7-2,3.3-4.1,4.6-6.3c0.2-0.3,0.4-0.7,0.6-1c0.3-0.5,0.6-1.1,0.9-1.6c0.2-0.3,0.4-0.7,0.5-1
			c0.2-0.3,0.3-0.7,0.5-1c0.2-0.3,0.3-0.7,0.5-1c0,0,0,0,0,0c0.1-0.3,0.3-0.7,0.4-1c0.9-2,1.6-4.1,2.2-6.3c0.1-0.3,0.1-0.5,0.2-0.7
			c0-0.2,0.1-0.4,0.2-0.6c0.1-0.4,0.2-0.8,0.3-1.2c0.1-0.4,0.2-0.8,0.3-1.2c0-0.2,0.1-0.5,0.1-0.7c0.1-0.3,0.1-0.6,0.2-0.9
			c0-0.3,0.1-0.5,0.1-0.8c0.1-0.3,0.1-0.6,0.1-1c0.1-0.5,0.1-1,0.2-1.5c0-0.4,0.1-0.8,0.1-1.2c0-0.5,0.1-1,0.1-1.5
			c0-0.8,0.1-1.6,0.1-2.3v-0.1C266.4,122.5,244.7,100.4,218.7,100.5z M252.1,157.4c-1.9,1.6-4.1,2.4-6.5,2.4h-17.4v1.2
			c0,5.5,0,11,0,16.5c0,4.3-1.5,7.6-5.3,9.6c-3.7,2-8.3,1.2-11.3-2.4c-1.6-1.9-2.3-4.2-2.3-6.7v-18.1h-1.2c-5.5,0-10.9,0-16.3,0
			c-4,0-7.1-1.8-8.8-5.6c-0.1-0.3-0.3-0.6-0.4-0.9c-1.5-4.2,0-9,3.9-11.5c1.7-1.1,3.5-1.5,5.5-1.5c3.2,0,6.3,0,9.5,0h7.9v-1.9
			c0-5.3,0-10.6,0-15.9c0-4.2,1.6-7.5,5.2-9.5c3.7-2,8.4-1.2,11.3,2.4c1.6,2,2.3,4.3,2.3,6.8c0,5.5,0,11.1,0,16.7v1.3h1.1
			c5.5,0,11,0,16.4,0c4,0,7.1,1.9,8.8,5.6C256.3,149.8,255.4,154.4,252.1,157.4z"/>
	</g>
</g>
</svg>
