<?xml version="1.0" encoding="utf-8"?>
<!-- Generator: Adobe Illustrator 20.1.0, SVG Export Plug-In . SVG Version: 6.00 Build 0)  -->
<svg version="1.1" id="Layer_1" xmlns="http://www.w3.org/2000/svg" xmlns:xlink="http://www.w3.org/1999/xlink" x="0px" y="0px"
	 viewBox="0 0 300 233" style="enable-background:new 0 0 300 233;" xml:space="preserve">
<style type="text/css">
	.st0{fill:#1A4B73;}
</style>
<g>
	<path class="st0" d="M34.2,125.3c0-5.8,0-11.6,0-17.4c0.4-0.3,0.4-0.8,0.4-1.2c0.7-8.5,2.4-16.7,5-24.8c3.5-10.9,8.6-21,15.1-30.4
		C61,42.4,68.4,34.3,77,27.3c8.4-6.9,17.5-12.5,27.4-16.8c11.4-5,23.4-8.2,35.9-9.2c0.5,0,0.9-0.1,1.2-0.4c5.7,0,11.5,0,17.2,0
		c0.4,0.4,0.9,0.4,1.4,0.5c1.1,0.1,2.3,0.2,3.4,0.3c14.1,1.8,27.5,6,40.1,12.6c10.4,5.4,19.7,12.3,28,20.5
		c3.8,3.7,7.3,7.8,10.6,12.1c8.6,11.3,15,23.7,19.1,37.4c2.2,7.3,3.7,14.8,4.3,22.4c0,0.6,0,1.2,0.4,1.6c0,5.7,0,11.3,0,17
		c-0.4,0.4-0.4,0.9-0.5,1.4c-0.1,1.1-0.2,2.3-0.3,3.4c-1.8,15.1-6.5,29.3-14,42.6c-8,14.3-18.6,26.4-31.6,36.3
		c-7.1,5.4-14.8,10-23,13.7c-11.7,5.2-23.9,8.6-36.7,9.7c-0.5,0-0.9,0.1-1.2,0.4c-5.7,0-11.5,0-17.2,0c-0.3-0.3-0.7-0.4-1.1-0.4
		c-2.9-0.2-5.8-0.6-8.8-1.1c-13-2.1-25.2-6.5-36.8-12.8c-11.4-6.2-21.4-14.3-30.2-23.9c-6.4-7.1-12-14.8-16.5-23.3
		c-7.5-14-12.1-28.8-13.4-44.6C34.6,126,34.5,125.6,34.2,125.3z M54.3,116.6c-0.1,51.6,41.4,94,92.1,95.8
		c54.9,1.9,98.6-42.8,99.3-94.4c0.7-54.2-43.5-96.7-95.1-97C96.6,20.6,54.2,64.5,54.3,116.6z"/>
	<path class="st0" d="M265.4,106.5c0.1,0,0.3,0,0.4,0c0,0.5,0,1.1,0,1.6C265.4,107.6,265.4,107,265.4,106.5z"/>
	<path class="st0" d="M169.9,129.3c-12.1,0-24.3,0-36.4,0c-0.5,0-1.3-0.3-1.6,0.3c-0.3,0.6,0.5,0.9,0.9,1.3
		c3.9,4.3,8.1,8.3,12.2,12.4c6.4,6.7,12.9,13.3,19.5,19.9c0.7,0.7,1.9,1.5,1.6,2.1c-0.3,0.8-1.7,0.3-2.6,0.3c-9.5,0-19.1,0-28.6,0
		c-1.3,0-2.3-0.4-3.2-1.3c-5.1-5.4-10.2-10.7-15.3-16c-4.8-5.1-9.7-10.2-14.5-15.2c-4.9-5-9.7-10.1-14.5-15.2
		c-0.7-0.8-0.8-1.5-0.1-2.2c0.4-0.4,0.7-0.9,1.1-1.3c6.1-6.4,12.2-12.7,18.4-19.1c4.9-5.1,9.7-10.1,14.5-15.2
		c3.7-3.9,7.4-7.8,11-11.7c0.7-0.7,1.5-0.8,2.4-0.8c6.4,0,12.7,0,19.1,0c3.8,0,7.5,0,11.3,0c0.4,0,1-0.2,1.2,0.3
		c0.2,0.4-0.4,0.7-0.6,1c-5.4,5.5-10.8,10.9-16.1,16.4c-5.7,5.8-11.4,11.7-17,17.5c-0.3,0.3-0.7,0.5-0.5,0.9c0.2,0.4,0.6,0.3,1,0.3
		c0.5,0,1,0,1.5,0c23.9,0,47.8,0,71.7,0c2.6,0,2.6,0,2.6,2.6c0,6.8,0,13.6,0,20.5c0,1.9-0.2,2.1-2.1,2.1
		C194.3,129.3,182.1,129.3,169.9,129.3z"/>
</g>
</svg>
