<?xml version="1.0" encoding="utf-8"?>
<!-- Generator: Adobe Illustrator 20.1.0, SVG Export Plug-In . SVG Version: 6.00 Build 0)  -->
<svg version="1.1" id="Layer_1" xmlns="http://www.w3.org/2000/svg" xmlns:xlink="http://www.w3.org/1999/xlink" x="0px" y="0px"
	 viewBox="0 0 300 233" style="enable-background:new 0 0 300 233;" xml:space="preserve">
<style type="text/css">
	.st0{fill:#FFFFFF;}
</style>
<g>
	<path class="st0" d="M167.7,233c-13.6,0-26.3-2-38.5-6.2c-9.1-3.1-17.6-7.3-25.7-12.5c-5.3-3.4-10.2-7.3-14.9-11.5
		c-5.1-4.6-9.7-9.6-13.8-15.1c-8.7-11.4-15.2-24-19.3-37.7c-2.1-6.9-3.5-13.9-4.2-21c-0.5-5-0.8-10-0.6-15.1
		c0.4-12.6,2.6-24.8,6.9-36.7c3.1-8.5,7.1-16.5,12.1-24.1c3.8-5.8,8.1-11.2,12.9-16.3c5.9-6.2,12.4-11.7,19.4-16.5
		c3.8-2.6,7.8-4.9,11.9-7c7.5-3.9,15.4-6.8,23.5-9c6.4-1.7,12.9-2.8,19.6-3.3c3.3-0.2,6.7-0.5,10-0.4c8.6,0.1,17.1,1.1,25.5,3.1
		c9.6,2.3,18.8,5.7,27.5,10.3c7.6,4,14.8,8.8,21.3,14.5c2.4,2.1,4.8,4.3,7,6.5c1.1,1.1,2.2,2.3,3.2,3.5c3.1,3.8,2.8,9.3-0.7,12.8
		c-3.5,3.5-9,3.8-12.8,0.8c-1-0.8-1.9-1.7-2.8-2.7c-6.3-6.6-13.4-12.1-21.3-16.7c-8.2-4.8-17-8.2-26.3-10.3
		c-5.8-1.3-11.6-2-17.6-2.3c-11.2-0.5-22.1,1-32.8,4.3c-8.3,2.6-16.1,6.3-23.4,11.1c-4.6,3-8.8,6.3-12.9,10c-7.6,7-13.9,15-19,24
		c-5.7,10.1-9.3,20.9-11.1,32.3c-0.6,3.5-0.8,7.1-1,10.7c-0.3,6.3,0.1,12.6,1,18.8c1,6.5,2.6,12.9,4.9,19.1
		c2.7,7.1,6.1,13.8,10.3,20.1c2.3,3.5,4.9,6.8,7.7,10c5.4,6.2,11.5,11.6,18.3,16.2c4.6,3.2,9.5,5.9,14.7,8.2
		c6.2,2.8,12.5,4.9,19.1,6.3c4.3,0.9,8.7,1.6,13.2,1.9c1.8,0.1,3.7,0.3,5.5,0.3c10.1,0.1,20.1-1.2,29.8-4.2c4.3-1.3,8.6-3,12.7-4.9
		c6.5-3,12.5-6.8,18.1-11.2c2.3-1.8,4.6-3.8,6.8-5.8c1.7-1.6,3.2-3.4,5-5c2.9-2.7,6.3-3.6,10.1-2.2c6.5,2.3,8.5,10.6,3.7,15.7
		c-7.5,8.1-16.1,15-25.6,20.7c-14,8.4-29.2,13.5-45.4,15.4C175.6,232.7,171.3,233.1,167.7,233z"/>
	<path class="st0" d="M280.1,110.2c0.7,1,1.5,2,1.9,3.2c1.4,4,0.5,7.5-2.4,10.4c-9.7,9.7-19.4,19.4-29.1,29.1
		c-1.5,1.5-3,3.1-4.6,4.6c-3.9,3.8-10.3,3.7-13.9-0.3c-3.5-3.9-3.4-9.7,0.4-13.5c5.4-5.4,10.9-10.9,16.3-16.3
		c0.2-0.2,0.7-0.4,0.6-0.8c-0.2-0.3-0.6-0.2-1-0.2c-27,0-54,0-81,0c-2.4,0-4.6-0.7-6.5-2.2c-3.7-2.8-4.7-8.5-2.3-12.4
		c2-3.2,5-4.8,8.7-4.8c27,0,53.9,0,80.9,0c0.4,0,1.1,0.2,1.2-0.2c0.1-0.3-0.5-0.7-0.8-0.9c-5.4-5.4-10.8-10.8-16.1-16.1
		c-3.9-3.9-3.8-10,0.1-13.9c3.1-3,8.2-3.6,11.9-1.2c0.5,0.3,1,0.7,1.5,1c0.3,0.3,0.6,0.6,0.9,0.9c10.8,10.8,21.7,21.7,32.5,32.5
		C279.5,109.7,279.8,109.9,280.1,110.2z"/>
	<path class="st0" d="M280.1,110.2c-0.3-0.3-0.6-0.6-0.9-0.9c-10.8-10.8-21.7-21.7-32.5-32.5c-0.3-0.3-0.6-0.6-0.9-0.9
		c0.6,0.1,1,0.4,1.3,0.8c10.7,10.7,21.5,21.5,32.2,32.2C279.7,109.3,280,109.7,280.1,110.2z"/>
</g>
</svg>
