<?xml version="1.0" encoding="utf-8"?>
<!-- Generator: Adobe Illustrator 20.1.0, SVG Export Plug-In . SVG Version: 6.00 Build 0)  -->
<svg version="1.1" id="Layer_1" xmlns="http://www.w3.org/2000/svg" xmlns:xlink="http://www.w3.org/1999/xlink" x="0px" y="0px"
	 viewBox="0 0 300 233" style="enable-background:new 0 0 300 233;" xml:space="preserve">
<g>
	<path d="M112.4,0c-0.3,5.2-0.6,10.4-0.9,15.6c-0.1,1.4-0.2,2.7-0.3,4.6c2.7,0,5.2,0.1,7.8,0.1c4.1,0,8.3-0.1,12.4-0.2
		c1.2,0,1.8,0.3,1.8,1.7c-0.1,3.8,0,7.7,0,11.7c3.3,0,6.3,0,9.5,0c1-10,2.1-20,3.1-30.1c3.4,0,6.5,0,10,0c-1,10.1-2,20.2-2.9,30.5
		c2.2,0.1,4.2,0.2,6.3,0.3c2.9,0,5.8,0,8.6,0c1.2,0,1.7-0.5,1.6-1.6c0-2-0.2-3.9-0.1-5.9c0-0.7,0.6-1.4,1-2.1c0.4,0.6,0.9,1.3,1.2,2
		c0.2,0.6,0,1.4,0,2.5c1.5,0,2.9,0,4.3,0c5.3,0,10.7,0,16-0.1c3,0,3-0.1,3.2-2.9c1.7-0.5,2.3,0,2.2,1.8c0,1.9,0,3.9,0,6
		c0.7,0,1.4,0,2,0c12.6,0,25.1,0,37.7,0c0.8,0,1.9,0.4,2.4-0.8c0-0.1,0.9-0.1,1,0.1c0.6,1.3,1.7,1,2.7,0.9c1.4,0,2.9-0.2,4.3-0.1
		c0.7,0.1,1.6,0.5,1.9,1.1c0.2,0.4-0.4,1.2-0.6,1.9c-0.2,0.6-0.4,1.1-0.4,1.7c-0.2,4.5,0,9-0.7,13.4c-0.8,4.9-3.7,8.7-8.2,11.1
		c-2.3,1.2-4.5,1.2-7,0.8c-18.1-2.9-36.3-4.7-54.6-5.7c-16.9-0.9-33.7-1-50.6-0.2c-21.2,0.9-42.3,3.1-63.3,6.5
		c-1.5,0.2-3,0.5-4.4,0.6c-1.9,0.1-3.9,0-6,0c0-4.6-0.1-8.8,0-13.1c0.1-4.7,0.2-9.4,0.4-14.1c0.1-1,0.8-1.9,1.1-2.9
		c0.2-0.6,0.4-1.2,0.4-1.8c0-1.8-0.1-3.6,0-5.3c0-0.9,0.3-1.8,1.4-1.7c1.2,0,1.3,0.9,1.3,1.8c0.1,2.5,0.2,4.9,0.1,7.4
		c-0.1,1.5,0.9,1.7,1.8,1.7c1.7,0.2,3.3,0.1,5,0.1c3.1,0,6.2-0.1,9.3,0.1c0.9,0,1.8,0.7,2.7,1.1c0.5,0.2,0.9,0.6,1.3,0.6
		c5.2,0,10.3,0,15.6,0c0-0.9,0-1.6,0-2.3c-2.6-1.6-2.8-2.4-1.3-5.3c0.2-0.4,0-0.9,0-1.4c0-0.6-0.2-1.4,0.1-1.7
		c0.3-0.3,1.2-0.4,1.7-0.2c3.4,1.4,3.7,0.8,3.6-2.5c-0.1-1.4,0.2-2.5-1.5-3.2c-1-0.4-0.7-1.9,0.4-2.2c0.8-0.2,1.6-0.2,2.4-0.2
		c1.4,0,2.1-0.3,2.1-1.9c0-1,0.2-2.1,0.5-3c0.4-1.2,1.2-1.9,2.7-1.8c0.2,0.9,0.3,1.6-0.6,2.5c-0.7,0.6-0.5,2.3-0.5,3.5
		c0,0.3,1.1,0.7,1.7,0.7c1.2,0.1,2.5,0,3.9,0c0.1-1.5,0.3-2.8,0.4-4c0.3-4.5,0.6-9.1,0.9-13.6c0.1-0.9,0.5-1.7,0.7-2.6
		C111.4,0,111.9,0,112.4,0z M111.8,53.2c2.3,0,4.4,0,6.6,0c4.3,0,4.3,0,3.9-4.3c0-0.1-0.1-0.2-0.3-0.6c-1.9,0-4,0-6,0
		C111.3,48.2,111.2,47.4,111.8,53.2z M210.2,37.3c-3.2,0-6.2,0-9.2,0c-0.3,0-0.9,0.5-1,0.8c-0.1,1.3,0,2.6,0,4c3.6,0,6.9,0,10.3,0
		C210.2,40.6,210.2,39.1,210.2,37.3z M221.1,42.2c0-1.7,0-3.3,0-4.7c-3,0-5.7,0-8.5,0c0,1.6,0,3.1,0,4.7
		C215.5,42.2,218.3,42.2,221.1,42.2z M223.7,37.3c0,1.7,0,3.2,0,4.9c2.8,0,5.5,0,8.4,0c0-1.7,0-3.3,0-4.9
		C229.2,37.3,226.6,37.3,223.7,37.3z M234.5,37.3c0,1.8,0,3.3,0,4.9c2.6,0,5,0,7.6,0c0-1.4,0.1-2.6-0.1-3.7
		c-0.1-0.4-0.7-1.1-1.1-1.1C238.8,37.2,236.7,37.3,234.5,37.3z M153.8,43.8c0-2.3,0-4.5,0-6.8c-0.9,0-1.6,0-2.4,0.1
		c-0.5,0.1-1.2,0.5-1.2,0.8c-0.1,1.8-0.1,3.7-0.1,5.6C151.5,43.6,152.5,43.7,153.8,43.8z M147.5,37.1c-3.5-0.5-3.8-0.3-3.8,2.9
		c0,0.7,0,1.5,0,2.2c-0.1,1.5,1,1.3,1.9,1.3c0.9,0,2,0.2,2-1.2C147.5,40.6,147.5,38.9,147.5,37.1z M187.5,37.4c0,2.1,0,4,0,6.1
		c1.3,0,2.4,0,3.6,0c0-2.1,0-4.1,0-6.1C189.8,37.4,188.7,37.4,187.5,37.4z M166.6,43.8c0-2.1,0.1-4.1-0.1-6c0-0.4-1.3-0.8-2-0.9
		c-0.4-0.1-1.2,0.5-1.2,0.9c-0.1,1.9-0.1,3.9-0.1,5.8C164.3,43.7,165.3,43.8,166.6,43.8z M176,43.7c1.3,0,2.1,0.1,2.8,0
		c0.4-0.1,0.9-0.5,1-0.8c0.1-1.8,0-3.5,0-5.4c-0.9-0.1-1.7-0.2-2.4-0.1c-0.4,0-1,0.4-1,0.6C176.1,39.8,176.1,41.6,176,43.7z
		 M157,37.1c0,2.3,0,4.4,0,6.6c1.3-0.1,2.3-0.1,3.3-0.2c0-2.2,0-4.3,0-6.4C159.2,37.1,158.2,37.1,157,37.1z M182.2,43.7
		c1.2,0,2.2,0,3.4,0c0-2.1,0-4.2,0-6.3c-1.2,0-2.3,0-3.4,0C182.2,39.5,182.2,41.6,182.2,43.7z M131.2,35.9c-1-0.1-1.6-0.3-2.2-0.2
		c-0.4,0.1-1.1,0.6-1.1,0.9c-0.1,1.9-0.1,3.8-0.1,5.8c0.6,0,1-0.1,1.4,0c1.7,0.3,2.1-0.5,2-2C131.1,39,131.2,37.5,131.2,35.9z
		 M173.1,43.7c0-2.3,0-4.3,0-6.3c-1.1,0-2,0-3.1,0c0,2.1,0,4,0,6.1C171,43.6,172,43.6,173.1,43.7z M185.9,50.5
		c0.1,1.3,0.2,2.3,0.3,3.3c5.2,0.4,5.7,0.9,4.9-3.3C189.5,50.5,187.9,50.5,185.9,50.5z M155.1,50.3c-4.3-1.3-5.4-0.6-4.8,3.1
		C154.9,54.4,155.5,54,155.1,50.3z M228.8,50.1c0,1.2,0.1,2.3,0,3.3c-0.1,1.2,0.2,1.9,1.7,1.9c1.4,0,1.8-0.7,1.8-1.9
		c0-1.1,0-2.1,0-3.2c-0.6-0.1-0.8-0.1-1.1-0.1C230.4,50.1,229.7,50.1,228.8,50.1z M69.6,51.4c-0.1-1,0-1.8-0.3-2.4
		c-0.3-0.6-1-1.3-1.4-1.3c-0.5,0-1.3,0.8-1.4,1.3c-0.2,0.9-0.1,1.9-0.1,2.9c0.1,1.5,1.4,2.3,2.5,1.4C69.4,52.9,69.5,51.9,69.6,51.4z
		 M77.8,53.7c0-1.5,0.2-2.8-0.1-4c-0.1-0.7-1-1.3-1.5-1.9c-0.5,0.6-1.3,1.2-1.4,1.8c-0.2,1.3-0.1,2.7-0.1,4.1
		C75.7,53.7,76.6,53.7,77.8,53.7z M207.5,50.2c0,1.7,0,3.2,0,4.7c2.8,0.6,3,0.5,3-2.3c0-0.8-0.1-1.6-0.2-2.4
		C209.3,50.2,208.4,50.2,207.5,50.2z M226.5,54.9c0-1.6,0-3.2,0-4.7c-1.1,0-2,0-3,0c0,1.6,0,3.1,0,4.7
		C224.5,54.9,225.4,54.9,226.5,54.9z M201.1,50.2c0,1.7,0,3.2,0,4.8c1.1,0,2,0,3,0c0-1.6,0-3.2,0-4.8
		C203.1,50.2,202.2,50.2,201.1,50.2z M102.1,38.9c3.4,0.6,4.3,0.4,4.4-1c0.1-2-0.2-2.2-2.7-2.3C102,35.6,101.8,35.9,102.1,38.9z
		 M109,38.9c3.2,0.6,4.2,0.4,4.3-0.8c0.2-2-0.2-2.4-2.7-2.4C108.9,35.6,108.8,35.8,109,38.9z M242.1,50.3c-2.9-0.4-2.9-0.4-2.9,2.1
		c0,0.5,0,0.9,0,1.4c-0.1,1.1,0.4,1.6,1.5,1.5c1.1,0,1.5-0.4,1.5-1.6C242.1,52.6,242.1,51.5,242.1,50.3z M145.9,8
		c2.8,1.2,5.4,0.6,8.2,0.2C152.7,6,147.6,5.9,145.9,8z M179.6,54c0.7-4.2,0.5-4.4-3.5-3.7c0.1,1.1-0.2,2.6,0.4,3.3
		C176.9,54.3,178.5,53.9,179.6,54z M234.5,50.2c0,1.7,0,3.4,0,5c2.7,0,2.7-0.2,2.7-3.5C237.1,49.6,235.8,50.1,234.5,50.2z
		 M140.4,43.4c0-1.9,0-3.8,0-5.7c-2.4-0.3-2.4-0.3-2.4,1.8c0,0.7,0.2,1.5,0.1,2.2C137.9,43.3,138.6,43.8,140.4,43.4z M107.6,23.5
		c0,1.8,0,3.4,0,5.1c0.9,0,1.6,0,2.5,0c0-1.7,0-3.4,0-5.1C109.2,23.5,108.4,23.5,107.6,23.5z M124.5,36c-1.7-0.6-2.4-0.1-2.4,1.6
		c0,1.4,0,2.7,0,4.2c1,0,1.6,0,2.4,0C124.5,39.7,124.5,37.8,124.5,36z M199.9,46.7c3.7,0,7.1,0,10.5,0c0.1-0.2,0.1-0.4,0.2-0.5
		c-0.5-0.2-0.9-0.5-1.4-0.5C204.4,45,200.8,45.4,199.9,46.7z M121.7,29.3c0-1.5,0.1-2.6,0-3.7c0-0.3-0.5-0.8-0.8-0.8
		c-0.6-0.1-1.7,0.1-1.7,0.2c-0.2,1.2-0.3,2.4,0,3.5C119.2,28.8,120.6,28.9,121.7,29.3z M123.3,24.9c0,1.4,0,2.7,0,3.9
		c3,0.5,3.5-0.2,2.6-3.9C125.1,24.9,124.3,24.9,123.3,24.9z M115.5,39.5c1.6-0.3,2.8-0.3,3.6-0.8c0.4-0.3,0.3-2-0.1-2.5
		c-0.4-0.5-2.1-0.6-2.5-0.2C115.9,36.6,115.9,37.9,115.5,39.5z M232.3,46.3c-0.1-0.2-0.1-0.5-0.2-0.7c-2.5,0-5.1,0-7.6,0
		c-0.3,0-0.5,0.4-0.8,0.6c0.2,0.2,0.5,0.5,0.7,0.5c2.2,0.1,4.3,0.2,6.5,0.2C231.3,46.9,231.8,46.5,232.3,46.3z M221,46.9
		c0.1-0.3,0.2-0.5,0.3-0.8c-0.4-0.2-0.9-0.7-1.3-0.7c-2,0-4,0-6,0.1c-0.5,0-0.9,0.4-1.4,0.6c0.4,0.3,0.9,0.7,1.3,0.7
		C216.3,47,218.6,46.9,221,46.9z M234.5,45.5c-0.1,0.2-0.2,0.4-0.3,0.6c0.4,0.3,0.8,0.8,1.2,0.9c1.8,0.1,3.7,0.1,5.5,0
		c0.4,0,0.8-0.4,1.2-0.7c-0.4-0.3-0.8-0.8-1.2-0.8C238.7,45.4,236.6,45.5,234.5,45.5z M131.6,49.4c0.2,1.3,0.4,2.5,0.7,3.7
		c0,0.2,1.5,0.2,1.5,0c0.4-1.1,0.5-2.3,0.8-3.7C133.5,49.4,132.7,49.4,131.6,49.4z M96.2,35.6c0.4,1.6,0.5,2.6,1,3.4
		c0.2,0.3,1.9,0.1,2.1-0.2c0.3-0.8,0.5-2.1,0.1-2.7C99,35.6,97.6,35.8,96.2,35.6z M93.8,42.7c0-0.1,0-0.3,0-0.4c-4.5,0-9,0-13.5,0
		c0,0.1,0,0.3,0,0.4C84.8,42.7,89.3,42.7,93.8,42.7z M90.7,52.8c0.9-3.6,0.4-4.7-1.8-4.4c0,1.4,0,2.9,0,4.4
		C89.6,52.8,90.1,52.8,90.7,52.8z M103.4,23.5c0,1.5-0.1,3,0,4.4c0,0.4,0.5,0.7,0.8,1c0.3-0.3,0.9-0.6,0.9-1c0.1-1.5,0-2.9,0-4.5
		C104.6,23.5,104.1,23.5,103.4,23.5z M162.2,49.8c0,1.2-0.1,2.2,0,3.2c0,0.3,0.5,0.9,0.7,0.8c0.4-0.1,1-0.4,1.1-0.7c0.1-1,0-2,0-3.1
		c0-0.1-0.1-0.2-0.3-0.3C163.4,49.8,162.9,49.8,162.2,49.8z M133.4,37.6c0,0.8,0.1,1.4,0.1,2c1.2,0,2.2,0,3.2,0c0-0.7,0-1.4,0-2
		C135.6,37.6,134.6,37.6,133.4,37.6z M244.9,37.1c-0.2,0.1-0.4,0.3-0.5,0.4c0,1.4,0,2.7,0,4.1c0,0.3,0.4,0.7,0.7,0.7
		c0.2,0,0.7-0.4,0.7-0.6c0.1-1.1,0.1-2.3,0-3.4C245.7,37.8,245.2,37.5,244.9,37.1z M100.8,28.8c0.1-0.1,0.2-0.3,0.4-0.4
		c0-1.3,0-2.6,0-3.9c0-0.4-0.4-0.8-0.6-1.2c-0.2,0.4-0.6,0.8-0.7,1.2c-0.1,1.2-0.1,2.4,0,3.6C100,28.3,100.5,28.6,100.8,28.8z
		 M129.5,27.2c0.4-1.2,0.2-2-1-1.8c-0.5,0.1-1.3,0.6-1.2,0.9C127.4,27.8,128.5,27.2,129.5,27.2z M244.4,53.6c0.1,0,0.3,0,0.4,0.1
		c0.2-1,0.5-1.9,0.6-2.9c0-0.2-0.3-0.4-0.5-0.7c-0.2,0.2-0.5,0.3-0.5,0.5C244.4,51.6,244.4,52.6,244.4,53.6z"/>
	<path d="M34.2,115.6C34,101.1,33.8,87,33.6,72.7c77.8-17,155.4-17,232.9-0.1c0,14.2,0,28.4,0,43C188.9,98.7,111.6,98.7,34.2,115.6z
		 M251.8,107.5c-35-7.2-70.3-10.8-106.1-10.3c-35.7,0.4-71,5.1-106,11.6c-0.1-0.3-0.2-0.5-0.2-0.7c-0.1-9.9-0.2-19.8-0.3-29.7
		c0-1.1,0.5-1.3,1.4-1.5c9.9-1.6,19.7-3.6,29.6-4.8c15.7-2,31.4-3.7,47.2-5c16.4-1.4,32.9-1.5,49.4-0.9c9.7,0.3,19.4,0.8,29.1,1.7
		c13,1.3,26,2.9,38.9,4.7c8.8,1.2,17.6,2.9,26.5,4.4c0,3.9,0,7.5,0,11.2c0,3.7,0,7.4,0,10.9c0.6-0.2,1.1-0.4,2-0.6
		c-1.5-0.1-2.1-0.6-1.5-2c0.5,0,1,0,1.2,0c-0.4-0.3-1.3-1-1.3-1.2c0.4-0.9-0.1-1.8,0-2.7c0.5,0,1-0.1,1.5-0.1c-1-0.3-2-0.6-1.3-2.1
		c0.6,0,1.1,0,1.6,0c-0.5-0.4-1.2-0.7-1.6-1.2c-0.1-0.2,0.4-0.9,0.5-1.1c-0.2-0.6-0.5-1.1-0.4-1.5c0.1-0.3,0.6-0.5,0.7-0.6
		c-0.3-0.6-0.6-1.2-1-1.9c0.8-0.1,1.2-0.1,1.4-0.2c-0.4-0.4-1.1-0.9-1-1.4c0.1-1.6,0.5-3.1,0-4.7c0-0.1,0.1-0.3,0.2-0.5
		c0.4,0,0.8,0,1.3,0c-2.4-0.7-1.1-2.9-1.8-4.3c-0.2,1.2-0.4,2.2-0.7,3.5c-74-16.9-147.9-15.8-221.8,0c-0.3-1.2-0.4-2-0.6-3
		c-0.8,1.3,0.5,3.3-1.4,3.7c0.3,0.2,1,0.5,1,0.9c0.1,0.4-0.4,0.9-0.5,1.2c0.2,0.5,0.5,1.1,0.8,1.7c-0.9,0.3-1.4,0.5-2.3,0.8
		c0.8,0,1.4,0,1.9,0c0.8,1.5-0.5,1.6-1.6,2c0.7,0.1,1.2,0.1,2.2,0.3c-0.6,0.8-1,1.4-1.3,1.8c0.2,0.1,0.9,0.4,0.9,0.7
		c0,0.5-0.4,1-0.6,1.3c0.3,0.4,0.6,1,1,1.6c-0.9,0.3-1.5,0.5-2.4,0.8c0.9,0.1,1.5,0.1,2.2,0.1c0.1,0.2,0.2,0.3,0.3,0.5
		c-0.6,0.5-1.1,1.1-1.5,1.4c0.3,0.2,0.8,0.4,1.3,0.7c-0.3,0.4-0.5,0.8-0.5,0.8c0.3,0.8,0.5,1.3,0.7,1.9c-0.8,0.3-1.3,0.5-1.8,0.7
		c0,0.1,0,0.1,0,0.2c0.5,0,1.1,0,1.6,0c0.1,0.1,0.2,0.3,0.3,0.4c-0.5,0.6-1,1.2-1.4,1.7c0.2,0,0.6,0.1,1.5,0.1
		c-0.5,0.8-0.8,1.4-1.1,1.9c0.2,0.2,0.6,0.5,0.9,0.9c-0.7,0.6-1.3,1.1-1.9,1.6c0.4,0,1.1,0,1.7,0c0.7,1.8-1,1.5-1.8,2
		c0.7,0.1,1.3,0.1,2.2,0.2c-0.2,0.6-0.2,1.1-0.4,1.3c-0.3,0.3-0.8,0.4-1.4,0.6c0.7,0.1,1.2,0.2,1.7,0.3c-0.1,1.3-0.1,1.3-2.6,2.1
		c0.9,0,1.7,0,2.6,0c0.1,0.8,0.2,1.6,0.2,2.4c-0.1-1.9,0.5-3,2.7-3.3c14.7-2.1,29.4-4.7,44.2-6.6c20.1-2.6,40.4-3.5,60.6-3.6
		c16.4-0.1,32.8,0.2,49.2,1.9c15.4,1.6,30.7,3.6,46.1,5.5C245.2,106.4,248.5,107,251.8,107.5z M80.8,96.2c-2.1,0-2.7-1.3-3-3.1
		c-0.9-5.1-2-10.3-3.1-15.4c-0.1-0.5-0.3-0.9-0.4-1.4c-0.2,0-0.3,0-0.5-0.1c-2.3,5.5-4.6,11.1-7,16.9c-3-5.1-5.9-9.9-8.8-14.7
		c-0.5,0.5-0.6,0.9-0.7,1.3c-0.6,5.7-1.1,11.3-1.7,17c-0.1,1.1-0.8,2.1-1.2,3.1c1.3-0.2,3.1-0.5,4.9-0.8c-2,0-1.8-1.4-1.7-2.7
		c0.1-0.8,0.1-1.6,0.2-2.4c0.2-2.6,0.4-5.2,0.7-8.2c2.7,4.4,5.1,8.4,7.7,12.7c2.2-5.2,4.2-10,6.2-14.7c0.1,0,0.2,0,0.4,0.1
		c0.8,4.3,1.6,8.5,2.4,13C76.8,96.6,78.8,96.4,80.8,96.2z M178.3,93.4c1.7-0.4,3.5-0.5,5.2-1.2c4-1.6,6.5-5.9,6.2-10.2
		c-0.3-4.9-3.1-8.3-7.8-9.5c-5.3-1.4-10.3,0.1-12.8,3.9C164.9,82.6,168.2,92.8,178.3,93.4z M205.5,82.9c3.7-2.6,6.2-6.6,11.4-7.4
		c-2.5-0.3-4.4-0.5-6.3-0.7c0.2,1.8-3.1,5.5-7.2,8c0-2.1-0.1-4.1,0.1-6.1c0.1-0.9,0.8-1.7,1.2-2.5c-2-0.2-4.3-0.4-6.6-0.6
		c1.5,0.4,2.2,1.2,2.1,2.7c-0.2,5-0.4,10-0.6,15c0,1.3-0.3,2.3-1.8,2.6c2.2,0.2,4.3,0.3,6.7,0.5c-1.7-1.2-2.2-7.1-1-10.1
		c1.8,2.3,3.7,4.5,5.3,6.8c2.3,3.4,5.4,4.9,9.4,4.6C212.6,93,209.8,87.4,205.5,82.9z M145.6,80.6c-0.1,0-0.3-0.1-0.4-0.1
		c0-1.9,0-3.9,0-5.8c0-1.3,0.2-2.5,2.2-2.8c-2.8,0-5.1,0-7.5,0c1.3,0.2,2,0.9,2,2.2c0,5.2,0,10.5,0,15.7c0,0.8-0.5,1.5-0.7,2.2
		c1.8,0,3.9,0,5.8,0c-0.5-0.5-1.4-0.9-1.4-1.5c-0.1-2.8-0.1-5.6-0.1-8.6c1.9,2.2,3.9,4.2,5.5,6.4c2.5,3.2,5.6,4.6,9.6,3.8
		c-5.6-2.4-8.6-7.6-12.9-11.7c3.6-3,5.9-6.9,10.8-8.5c-2.4,0-4.3,0-5.8,0c-0.4,0.9-0.5,1.8-1.1,2.4
		C149.7,76.4,147.6,78.5,145.6,80.6z M87.8,75c2,0,2.3,1.2,2.4,2.8c0.1,3.3,0.2,6.7,0.4,10c0.2,3.7,2,6.1,5.1,6.7
		c5.2,1,11.5-0.9,11.5-8.8c0-3.2-0.2-6.4-0.1-9.7c0-1,0.6-1.9,1-2.8c-1.6,0.1-3.6,0.3-5.6,0.4c1.4,0.1,2.2,0.7,2.2,2.2
		c0.1,4,0.3,8,0.1,12.1c-0.1,3.5-2.3,5.4-5.6,5.5c-3,0-4.9-2-5.1-5.6c-0.2-3.6-0.4-7.1-0.4-10.7c0-0.9,0.6-1.9,1-2.8
		C92.7,74.5,90.2,74.7,87.8,75z M246.4,99.9c-2-0.7-2.5-2.5-3.1-4.2c-1.8-5.2-3.5-10.3-5.2-15.5c-0.3-0.9-0.7-1.7-1.2-3
		c-0.6,1-0.9,1.6-1.2,2.2c-2.3,4.7-4.6,9.5-6.9,14.3c-0.7,1.5-1.3,3.1-3.5,3.2c1.8,0.2,3.6,0.4,5.5,0.7c-0.3-0.4-0.8-0.9-0.8-1.1
		c0.6-1.7,1.1-3.5,2-5c0.2-0.4,1.6-0.2,2.5-0.2c1,0.1,2.1,0.2,3.1,0.4c0.4,0.1,1,0.3,1.1,0.6c0.7,2.2,1.4,4.4,2.1,6.8
		C242.6,99.3,244.5,99.6,246.4,99.9z M128.5,76.2c0.2-4.5,0-4.7-4.3-4.3c-0.9,0.1-1.8,0.3-2.6,0.7c-3.1,1.4-4.2,4.7-2.2,7.6
		c0.8,1.2,1.9,2.1,3,3c1,0.9,2.1,1.6,3.1,2.5c1.2,1.1,1.6,2.6,0.9,4.1c-0.7,1.6-2.2,2.1-3.8,2.1c-1.7-0.1-3-0.8-3.5-2.5
		c-0.2-0.5-0.3-0.9-0.5-1.7c-0.8,5.2-0.6,5.5,4.3,5.4c0.4,0,0.8,0,1.2-0.1c4.9-0.7,7.1-5.8,4.2-9.6c-0.9-1.1-2.1-2-3.2-2.9
		c-1-0.9-2.2-1.5-3.1-2.5c-1.7-1.8-0.9-4.2,1.4-4.8C125.4,72.5,126.8,73.3,128.5,76.2z"/>
	<path d="M98.9,158.8c0,1.7,0,3.4,0,5.2c5.5-6.5,12.6-6.3,19.7-5.2c4,0.6,7.1,2.8,8.7,6.9c2.9-6.4,8.6-7.2,14.4-7.4
		c5.8-0.1,11.3,0.8,14.5,6.8c2.8-5.4,7.7-6.7,13-6.7c3.2,0,6.4,0.6,9.6,0.9c0.6,0,1.3-0.6,1.9-0.6c4.8-0.1,9.7,0,14.6,0
		c0.8,7,1.6,13.8,2.4,20.6c0.1,0,0.2,0,0.2,0c0.8-6.8,1.6-13.7,2.4-20.6c0.8,0,1.5,0,2.1,0c17.1,0,34.2,0,51.3,0
		c2.3,0,4.6,0.4,7,0.6c0.2-0.1,0.6-0.6,1-0.6c4.8-0.1,9.6,0,14.5,0c1.3,4.5,2.6,8.9,4,13.8c1.4-4.3,2.8-8.2,4-12.2
		c0.4-1.3,1-1.7,2.3-1.6c4.4,0.1,8.7,0,13.3,0c-1.4,3.7-2.7,7.2-4,10.7c-2.7,7.1-5.3,14.2-8,21.3c-0.4,1.1-0.6,2.3-0.6,3.5
		c-0.1,6.1,0,12.2,0,18.3c0,0.6,0,1.2,0,2.1c-0.8,0-1.4,0-2,0c-9.2,0-18.3-0.1-27.5,0.1c-2.2,0-3.2-1-3.8-2.7
		c-0.4-1.1-0.6-2.2-1.1-3.8c0,2.4,0,4.3,0,6.3c-13.3,0-26.4,0-39.7,0c0-11.5,0-23,0-34.4c-0.1,0-0.2,0-0.4,0
		c-1.6,11.5-3.3,22.9-4.9,34.5c-6.8,0-13.6,0-20.4,0c-0.4-2.6-0.8-5.1-1.2-7.8c-0.7,1.2-1.3,2.5-2.1,3.5c-1.9,2.5-4.7,3.7-7.7,4.4
		c-3.9,0.9-7.8,0.9-11.6,0c-3.7-0.9-6.9-2.5-8.9-6.2c-3.4,5.3-8.4,6.9-14.2,6.8c-5.6-0.1-10.8-1.2-14.3-6.4
		c-3.2,5.7-8.7,6.3-14.2,6.4c-5.6,0.1-10.8-0.8-14.6-6.1c0,2,0,3.6,0,5.4c-5.4,0-10.5,0-15.9,0c0-2.4,0-4.9,0-7.4
		c-2.3,3.8-5.4,6.2-9.7,7.1c-1,0.2-1.9,0.4-2.9,0.4c-6,0-12.1,0-18.2,0c-0.1-0.6-0.2-1.1-0.3-1.9c-7.9,5-14.6,2.5-20.9-3.2
		c-0.7,0.5-1.3,0.9-1.9,1.3c-5.4,3.7-11.4,5.2-17.9,4.2c-12.7-2-13.5-14.6-8.6-21.3c2.5-3.4,5.8-5.7,9.4-7.8
		c0.6-0.4,1.3-0.7,1.7-0.9c-0.6-3.1-1.5-6-1.6-8.9c-0.3-10.3,9.7-16.5,19.4-12.2c5.7,2.5,7.6,9.3,4.5,14.8c-0.3,0.5-0.6,1-0.9,1.6
		c5.7,0,11.3,0,17,0c0-7.1,0-14.2,0-21.4c0.5-0.1,0.8-0.2,1.1-0.2c5.8,0,11.5-0.1,17.3,0c5.4,0.2,9.7,2.5,12.5,8c0-2.9,0-5.3,0-7.9
		C88.3,158.8,93.5,158.8,98.9,158.8z M297.4,160.1c-3.3,0-6.3,0.1-9.4,0c-1.3,0-1.8,0.4-2.2,1.6c-1.6,4.9-3.2,9.8-4.8,14.7
		c-0.2,0.5-0.4,1-0.7,1.8c-1.8-6.3-3.5-12.2-5.2-18c-4,0-7.7,0-11.5,0c0.3,1.1,0.5,2.1,0.8,3.1c-3.1-2.2-4.2-2.9-7.9-3.1
		c-5.6-0.2-11.3-0.1-16.9-0.1c-0.1,0-0.2,0.1-0.5,0.3c0,14.9,0,30,0,45c-4.1,0-7.9,0-11.8,0c0-6,0-11.8,0-17.9c2.3,0,4.5,0,6.8,0
		c0.5,0,1.3-0.4,1.3-0.7c0.1-2,0.1-4,0.1-6.2c-2.9,0-5.5,0-8.1,0c0-4.6,0-9,0-13.6c2.3,0,4.5,0,6.6,0c0.5,0,1.4-0.5,1.4-0.7
		c0.1-2,0.1-4.1,0.1-6.2c-6.3,0-12.3,0.1-18.2,0c-1.7,0-2.1,0.5-2.1,2.1c0.1,16.1,0,32.2,0,48.4c0,0.6,0,1.2,0,1.9
		c12.1,0,24,0,36.1,0c0-8.4,0-16.6,0-24.9c3.3,0,3.6,0.3,3.6,3.3c0,4.4-0.1,8.8,0,13.1c0.1,2.3,0.5,4.7,0.9,7c0.2,1.1,1,1.6,2.3,1.6
		c2.6-0.1,5.3,0,7.9,0c0.8,0,1.5,0,2.3,0c-0.5-1.6-1.1-3-1.2-4.3c-0.3-5.2-0.4-10.3-0.5-15.5c-0.1-5.2-1-6.7-5.8-8.6
		c-0.2-0.1-0.3-0.2-0.8-0.6c6.8-1.6,6.8-6.8,6.7-12.2c1.9,5.4,3.5,10.7,5.3,15.9c1,3,1.4,6,1.4,9.1c-0.1,4.7,0,9.4,0,14.2
		c0,0.6,0.1,1.2,0.1,1.9c4.1,0,7.9,0,12,0c0-0.7,0-1.3,0-2c0-5.8,0-11.5,0-17.3c0-0.8,0.1-1.6,0.4-2.3c2.6-6.9,5.2-13.8,7.8-20.8
		C294.9,166.8,296.1,163.6,297.4,160.1z M202.1,160.1c-1.4,11.7-2.7,23.2-4.1,34.8c-0.9-5.3-1.5-10.6-2.1-15.9
		c-0.7-5.9-1.4-11.8-2.1-17.6c-0.1-0.4-0.6-1.1-0.9-1.1c-3.6-0.1-7.2-0.1-10.9-0.1c0,1,0,1.7,0,2.4c-1.4-0.6-2.7-1.4-4.1-1.8
		c-4-1.3-8.2-1.2-12.3-0.4c-6.1,1.2-8.4,4.1-8.4,10.3c0,11,0,22,0,33c0,3.5,1.5,6.1,4.7,7.6c4.5,2.3,9.3,2.5,14.1,1.4
		c6.1-1.3,9.1-4.6,8.9-11c-0.2-5.7,0-11.4,0-17.1c0-0.5,0-1,0-1.5c0.5,1.8,0.8,3.6,1.1,5.4c1.1,7.6,2.1,15.2,3.2,22.8
		c0.1,0.4,0.8,1.1,1.3,1.1c5,0.1,10,0.1,15,0c0.4,0,1.1-0.6,1.2-1c1-6.5,1.9-13.1,2.8-19.6c1.1-7.8,2.2-15.7,3.3-23.5
		c0.4-2.7,0.7-5.4,1.1-8.2c-0.4-0.1-0.7-0.1-0.9-0.1C209.5,160.1,206,160.1,202.1,160.1z M24.3,185.6c3.1-2.2,6.1-3.9,8.6-6.2
		c4.1-3.8,3.6-10.6-0.8-13.4c-4.1-2.6-8.5-2.7-12.8-0.3c-3.9,2.2-6.1,7-5.2,11.6c0.5,2.7,1.4,5.4,2.1,8.3c-1.2,0.7-2.6,1.4-3.9,2.2
		C9.1,189.6,6,191.8,4,195c-4.1,6.3-2.8,16.8,8.3,18.2c5.8,0.7,11.2-0.7,16-4.1c1-0.7,1.9-1.4,2.9-2.1c10.9,8.4,14.4,8.6,22.9,0.9
		c0,1.6,0,3.1,0,4.7c5.3,0,10.5,0,15.6,0c0.6,0,1.3,0,1.9-0.1c5.6-0.7,10.4-4.6,10.2-11.4c-0.3-9.9-0.3-19.8,0-29.7
		c0.2-6.7-4.8-10.6-9.7-10.9c-4.8-0.3-9.7-0.2-14.5-0.3c-1.1,0-2.3,0-3.6,0c0,0.9,0,1.6,0,2.3c0,13.5,0,27,0,40.4
		c0,0.7-0.1,1.4-0.4,1.9c-1.5,2-3.5,3.2-6.2,3.2c-5-0.1-8.2-3-11.1-6.1c3.2-5,6.3-9.8,9.4-14.7c1.2-1.9,2.9-3.1,5.2-3.3
		c1.3-0.1,1.7-0.7,1.3-2c-5.3,0-10.7,0-16,0c-0.1,1.7-0.1,1.7,1.6,1.9c2.7,0.4,3.5,1.6,2.9,4.3c-1.1,4.3-3.6,7.7-6.8,11.3
		C30.5,194.6,27.3,190,24.3,185.6z M126,178.3c0-3.3,0.2-6.5,0-9.6c-0.3-4.7-2.5-7.2-7.1-8.3c-4.2-1-8.5-0.9-12.6,0.3
		c-4.5,1.3-6.6,4.2-6.7,8.9c0,1.4,0.1,2.9,0,4.3c-0.4,4,1.3,7.1,4.1,9.8c3.2,3.2,6.5,6.4,9.6,9.7c0.9,1,1.6,2.4,1.8,3.7
		c0.3,2,0.1,4.1,0.1,6.2c0,1.2-0.7,1.8-1.8,1.9c-1.7,0.2-2.7-0.6-2.7-2.4c0-3.7,0-7.5,0-11.2c-3.8,0-7.4,0-11,0c0,3.9,0,7.6,0,11.3
		c0,4.7,2.3,7.9,6.7,9.3c4.6,1.5,9.3,1.4,14,0.1c4.3-1.2,6.4-3.9,6.6-8.3c0.1-2.2,0-4.5,0.1-6.7c0.2-3.7-1.1-6.9-3.7-9.5
		c-3-3-5.9-6-8.9-8.9c-2-1.9-3.3-4.1-3.1-7c0.1-1,0.1-2,0-2.9c-0.1-1.3,0.5-1.8,1.7-1.8c1.2,0,2,0.4,2,1.8c0,2.5,0,5.1,0,7.6
		c0,0.6,0.1,1.2,0.1,1.8C118.8,178.3,122.3,178.3,126,178.3z M144.1,178.7c0.6,0,1,0.1,1.4,0.1c2.9,0,5.8,0,8.6-0.1
		c0.4,0,1-0.7,1-1.2c0.1-2.9,0.2-5.9,0-8.8c-0.3-4.6-2.6-7.2-7.1-8.4c-3.6-0.9-7.2-0.9-10.8-0.2c-6.3,1.2-8.6,4.1-8.6,10.5
		c0,10.9,0,21.9,0,32.8c0,3.1,1.2,5.6,3.8,7.1c5.9,3.4,12.1,3.7,18.3,0.6c3.1-1.6,4.6-4.2,4.5-7.7c-0.1-3.3,0-6.7,0-10
		c0-0.6-0.1-1.2-0.1-1.9c-3.7,0-7.2,0-10.9,0c0,4.2,0,8.3,0,12.3c0,1.1-0.5,1.7-1.6,1.7c-1.1,0-1.8-0.4-1.8-1.8
		c0-11.7,0-23.5,0-35.2c0-1.1,0.5-1.4,1.4-1.5c1.3-0.1,2,0.3,2,1.8C144,172.1,144.1,175.3,144.1,178.7z M85.1,212.5
		c4,0,7.8,0,11.8,0c0-17.5,0-34.9,0-52.3c-4,0-7.8,0-11.8,0C85.1,177.6,85.1,195,85.1,212.5z M52.2,185.7c-2.2,0-3.9,0.8-5,2.6
		c-2.8,4.5-5.6,8.9-8.5,13.5c2.5,3,6.1,4.8,9.4,4.5c1.9-0.2,4-1.7,4-3.2C52.2,197.4,52.2,191.6,52.2,185.7z M155.4,189.8
		c0-3,0-5.9,0-8.9c-4.3,0-8.5,0-12.8,0c0,3,0,5.9,0,8.9C146.8,189.8,151,189.8,155.4,189.8z M229.1,189.5c0,4.9,0,9.6,0,14.4
		c2.7,0,5.3,0,7.9,0c0-4.8,0-9.6,0-14.4C234.4,189.5,231.9,189.5,229.1,189.5z M34.2,181.3c-2.6,1.7-4.9,3.3-7.5,5
		c2.3,3.5,4.6,6.9,7,10.4c0.2,0,0.5,0,0.7,0.1c1.4-2.7,3-5.4,4.1-8.2c0.8-2,0.3-2.7-1.9-2.9c-0.8-0.1-1.6-0.1-2.5-0.2
		C34.2,184,34.2,182.8,34.2,181.3z M271,212.2c0.2-0.1,0.4-0.2,0.6-0.3c0-5.6,0-11.3,0-16.9c0-5.2-2.6-9.6-3.5-13.8
		c-1.1,0.9-2.4,1.8-3.7,2.9c3.5,2.1,4.2,5.4,4.1,9.1c-0.1,3.2-0.1,6.3,0,9.5c0.1,2.3,0.3,4.7,0.8,7
		C269.5,210.5,270.4,211.4,271,212.2z M229.1,169.1c0,3.5,0,6.8,0,10.1c2.7,0,5.3,0,7.9,0c0-3.4,0-6.7,0-10.1
		C234.4,169.1,231.8,169.1,229.1,169.1z M118.8,180.4c-0.1,0.2-0.2,0.3-0.3,0.5c2.8,2.5,5.7,5,8.2,7.2c0-2.1,0-4.8,0-7.6
		C124,180.4,121.4,180.4,118.8,180.4z M106.8,189.8c-2.8-3-5.3-5.7-7.8-8.4c0,2.8,0,5.5,0,8.4C101.6,189.8,104,189.8,106.8,189.8z"
		/>
	<path d="M140,145.8c1.9-3.8,3.6-7.3,5.3-10.8c2.2-4.4,4.4-8.9,6.6-13.3c0.3-0.6,1.1-1,1.6-1.5c0.3,0.6,0.8,1.2,0.9,1.9
		c1.4,8.9,2.8,17.7,4.1,26.6c0.6,3.7,0.8,3.9,4.4,4.5c0.3,0.1,0.6,0.2,0.9,0.7c-3.9,0-7.7,0-11.4,0c0-1.9,0.2-3.6,0-5.2
		c-0.6-5.4-1.4-10.7-2.2-16.6c-0.5,0.9-0.8,1.4-1.1,1.9c-3,6.1-6.1,12.1-9.1,18.2c-0.4,0.7-1,1.3-1.6,1.9c-0.5-0.6-1.2-1.2-1.6-1.9
		c-3-5.9-6-11.8-9-17.7c-0.3-0.5-0.5-1-1-1.9c-0.4,2.8-0.7,5.1-1,7.5c-0.4,3.4-0.8,6.7-1.3,10.1c-0.3,2.2,0,2.6,2.2,3
		c0.5,0.1,1,0.2,1.4,0.4c0,0.1,0,0.3-0.1,0.4c-7,0-14.1,0-20.7,0c-0.1-1.2-0.1-2.3-0.4-3.2c-0.7-2.1-1.7-4.2-2.4-6.3
		c-0.4-1-0.9-1.3-1.9-1.3c-2.9,0-5.8,0-8.6,0.1c-0.6,0-1.4,0.4-1.6,0.9c-1,2.1-1.8,4.2-2.6,6.4c-0.7,2.1-0.4,2.4,1.8,2.8
		c0.3,0.1,0.7,0.2,0.9,0.7c-3.9,0-7.7,0-11.6,0c0-0.1-0.1-0.2-0.1-0.3c0.3-0.2,0.6-0.4,0.9-0.4c2.5,0.1,3.5-1.5,4.4-3.5
		c2.5-5.8,5-11.6,7.5-17.4c1.6-3.6,3.1-7.2,4.7-10.8c0.3-0.6,0.8-1,1.3-1.5c0.5,0.5,1.2,0.9,1.4,1.5c3.8,8.8,7.5,17.5,11.3,26.3
		c0.5,1.1,1,2.1,1.6,3.1c1.3,2.1,2.7,2.8,5,2.1c0.7-0.2,1.6-1.4,1.7-2.2c0.8-4.1,1.4-8.3,2.1-12.4c0.9-5.5,1.7-10.9,2.6-16.4
		c0.1-0.7,0.6-1.2,0.9-1.9c0.5,0.5,1.3,0.9,1.6,1.5c3.8,7.5,7.5,15,11.3,22.5C139.3,144.7,139.6,145.1,140,145.8z M98.4,128.8
		c-1.7,4.2-3.1,7.9-4.7,11.8c3.2,0,6,0,9.2,0C101.5,136.8,100.1,133.1,98.4,128.8z"/>
	<path d="M202.1,121.3c-3.7,1.5-3.7,1.5-3.7,5.5c0,2.6,0,5.2,0,7.8c0,0.2,0.1,0.3,0.2,0.6c5.8,0,11.5,0,17.4,0c0-3.8,0-7.4,0-11.1
		c0-1.4-1.1-1.9-2.4-2.1c-0.6-0.1-1.3-0.2-1.9-0.2c0-0.2,0-0.3,0-0.5c4.8,0,9.6,0,14.3,0c0,0.1,0,0.3,0.1,0.4
		c-0.4,0.1-0.8,0.2-1.1,0.3c-2.1,0.3-2.6,0.8-2.6,2.9c0,8.3,0,16.6,0,24.9c0,2.8,0.5,3.2,3.3,3.5c0.5,0.1,1,0.2,1.5,0.3
		c0,0.1,0,0.3-0.1,0.4c-4.9,0-9.8,0-14.7,0c0-0.1-0.1-0.3-0.1-0.4c0.4-0.1,0.9-0.4,1.3-0.4c1.5,0,2.3-0.8,2.3-2.2c0-4.2,0-8.5,0-13
		c-0.8,0-1.8,0-2.8,0c-4.4,0-8.7,0-13.1,0c-1.1,0-1.7,0.3-1.6,1.5c0.1,3.6,0.1,7.1,0.3,10.7c0.1,2.5,0.5,2.7,3.1,3
		c0.5,0,1.1,0.2,1.6,0.3c0,0.1,0,0.3,0,0.4c-4.9,0-9.8,0-14.7,0c0-0.1,0-0.2-0.1-0.3c0.3-0.1,0.7-0.4,1-0.4c2,0.1,2.6-1.2,2.6-2.9
		c0.1-4.2,0.2-8.4,0.2-12.6c0-4.1,0-8.2,0-12.3c0-2.8-0.6-3.3-3.4-3.6c-0.3,0-0.6-0.1-0.8-0.2c-0.1,0-0.1-0.2-0.3-0.5
		C192.5,121.3,197.3,121.3,202.1,121.3z"/>
	<path d="M295.7,123.7c-0.1-0.3-0.2-0.6-0.3-1c-1-4.4-4.3-6.5-8.7-5.6c-4,0.8-5.8,5-3.3,8.2c1.3,1.7,3.1,3.1,4.7,4.5
		c1.9,1.6,3.9,3.1,5.7,4.8c2,1.9,3.5,4.3,3.8,7.2c0.9,7.2-3.6,12.7-10.9,13c-2.9,0.1-5.8-0.4-8.7-0.8c-1.4-0.2-2-1-1.9-2.6
		c0.2-1.8,0.1-3.7,0.2-5.5c0-0.7,0.3-1.4,0.4-2.1c0.2,0,0.3,0,0.5,0c0.1,0.5,0.3,1.1,0.3,1.6c0.6,4.6,3.7,7.3,8.4,7
		c5.3-0.3,8.1-5.4,5.2-9.9c-1.2-1.8-3-3.2-4.6-4.6c-2.2-2.1-4.6-4-6.7-6.2c-2.3-2.5-3.1-5.7-2.5-9.2c0.7-3.9,4-7.1,8.5-7.6
		c3.1-0.3,6.4,0.2,9.6,0.4c0.9,0.1,1.3,0.6,1.3,1.6c-0.1,1.8-0.1,3.6-0.2,5.3c0,0.5-0.2,1-0.3,1.5
		C296.1,123.7,295.9,123.7,295.7,123.7z"/>
	<path d="M2.9,143.9c0.3,1.3,0.5,2.7,1,4c1.2,3.2,4.1,4.8,7.9,4.5c3.1-0.2,5.4-2.1,6-4.8c0.5-2.4-0.3-4.6-1.9-6.4
		c-1.2-1.4-2.7-2.5-4.1-3.7c-1.8-1.6-3.7-2.9-5.3-4.7c-1.4-1.6-2.6-3.4-3.2-5.4c-2-6.1,1.8-11.8,8.4-12.6c3-0.4,6.2,0.2,9.2,0.4
		c1.1,0.1,1.6,0.6,1.4,1.8c-0.2,2.2-0.3,4.4-0.4,6.6c-0.2,0-0.3,0.1-0.5,0.1c-0.1-0.3-0.3-0.7-0.4-1c-0.9-4.9-5.9-7.3-10.4-5.1
		C8,119.1,7,122.5,9,125.2c1.2,1.7,3,3,4.5,4.4c2.3,2,4.8,3.8,6.8,6.1c4.1,4.6,4.2,11.3,0.3,15.4c-2.9,3.1-6.7,4-10.7,3.8
		c-2.3-0.1-4.5-0.7-6.8-1.1c-1-0.2-1.5-0.9-1.4-2c0.1-2.2,0.2-4.4,0.3-6.5c0-0.5,0.3-1,0.4-1.4C2.6,143.8,2.8,143.8,2.9,143.9z"/>
	<path d="M259,138.6c0.4-0.1,0.8-0.2,1.3-0.3c4-0.5,6.6-3.9,6.2-8.1c-0.4-4.3-3.7-7.4-7.6-7.1c-1.1,0.1-2,0.2-2,1.7
		c0.1,8.4,0.1,16.8,0.3,25.2c0,2.7,0.4,2.9,3.2,3.2c0.5,0.1,1.1,0.2,1.6,0.3c0,0.1,0,0.3-0.1,0.4c-4.9,0-9.7,0-14.6,0
		c0-0.1-0.1-0.2-0.1-0.3c0.5-0.1,0.9-0.4,1.4-0.4c1.5,0,2-0.9,2.1-2.2c0.1-2.3,0.3-4.6,0.3-6.9c0-5.9,0-11.7,0-17.6
		c0-3.3-0.1-4.4-3.9-4.6c-0.2,0-0.4-0.2-0.8-0.4c0.5-0.2,0.8-0.5,1-0.5c5.9,0.1,11.7-0.1,17.6,0.3c4.6,0.3,7.5,3.6,7.4,7.6
		c-0.1,5.2-4.1,9.6-9.4,10.2c-1.3,0.1-2.5,0-3.8,0C259,139.1,259,138.8,259,138.6z"/>
	<path d="M78.4,127.4c-1-3.3-1.3-3.6-4.9-3.7c-1.6,0-3.2-0.1-4.8-0.1c-0.9,0-1.2,0.3-1.2,1.2c0,3.1,0,6.2,0.1,9.3
		c0,0.4,0.8,1.1,1.2,1.1c2.5,0,4.9,0,7.4-0.2c0.9-0.1,1.7-0.6,2.8-1c-0.2,2.5-0.5,4.9-0.7,7.4c-0.4-0.2-0.6-0.3-0.6-0.4
		c-1-3.3-1-3.3-4.5-3.4c-1.5,0-3-0.1-4.5-0.1c-0.9,0-1.2,0.3-1.2,1.2c0,3.2,0,6.3,0,9.5c0,1.7,0.9,2.9,2.6,3.1
		c2.1,0.2,4.2,0.2,6.4,0.1c1.8-0.1,2.9-1.2,3.3-3c0.1-0.4,0.3-0.8,0.7-1.2c0.4,2.2,0.3,4.4-0.6,6.4c-0.2,0.4-1.3,0.6-2,0.6
		c-6.5,0-13-0.1-19.5-0.2c-0.2,0-0.5-0.1-1.2-0.3c0.8-0.3,1.1-0.6,1.4-0.6c2,0.1,2.6-1.1,2.7-2.8c0.1-3.1,0.2-6.2,0.2-9.3
		c0-5.1,0-10.1,0-15.2c0-3.2-0.4-3.7-3.6-4c-0.3,0-0.6-0.2-0.9-0.3c0-0.2,0-0.3,0-0.5c7.5,0,15,0,22.7,0c-0.2,1.9-0.4,4.1-0.6,6.3
		C78.7,127.5,78.5,127.5,78.4,127.4z"/>
	<path d="M183.8,128.5c-0.2-0.4-0.3-0.6-0.4-0.9c-0.7-5.5-7.8-6-11-3.4c-1.8,1.5-2.1,4.4-0.3,6.1c1.2,1.2,2.7,2.1,4.2,3
		c1.9,1.3,4,2.4,5.7,3.8c3.2,2.7,4.3,6.4,3.1,10.4c-1.2,4-4.2,6.4-8.3,6.8c-3.2,0.3-6.5-0.1-9.7-0.4c-1.6-0.1-2.2-1.2-2-2.8
		c0.2-1.5,0.2-3,0.3-4.5c0-0.5,0.2-1,0.3-1.5c0.2,0,0.4,0,0.5,0c0.2,0.8,0.3,1.6,0.5,2.4c0.7,3.2,3.7,5.1,7.7,4.9
		c3.2-0.1,5.4-1.9,5.9-4.8c0.3-2.2-0.4-4-2.2-5.3c-1.6-1.2-3.3-2-4.9-3.2c-1.8-1.3-3.8-2.6-5.2-4.2c-3.6-4.3-2.3-10.3,2.6-12.9
		c4.2-2.2,8.7-1.8,13.1-0.9c0.3,0.1,0.8,0.5,0.8,0.7c0,2-0.1,4-0.2,6C184.3,128,184.1,128.2,183.8,128.5z"/>
	<path d="M54.7,121.2c0,2.1,0,4.3,0,6.5c-0.2,0.1-0.3,0.2-0.5,0.3c-0.5-4.3-3.7-3.9-6.5-4c-1.5-0.1-3.1,0-4.7,0
		c-0.1,0.4-0.1,0.8-0.1,1.2c0,8,0,16,0.1,24c0,0.6,0.1,1.3,0.1,1.9c0.2,1.5,0.9,2.3,2.5,2.3c0.7,0,1.5,0.2,2.2,0.3
		c0,0.2,0,0.3-0.1,0.5c-4.9,0-9.8,0-14.7,0c0-0.1-0.1-0.2-0.1-0.4c0.4-0.1,0.9-0.4,1.3-0.4c1.5,0,2.2-0.9,2.2-2.3c0-9,0-17.9,0-27.1
		c-1.6,0-3.4,0-5.3,0c-0.6,0-1.1,0.1-1.7,0.1c-2.2-0.1-4,0.5-4.8,2.8c-0.1,0.2-0.3,0.3-0.4,0.4c-0.2-0.1-0.4-0.1-0.5-0.2
		c0.4-2,0.7-4,1.2-6c0-0.2,0.6-0.4,1-0.4c3.1,0.2,6.2,0.5,9.3,0.5C41.6,121.2,48.2,121.2,54.7,121.2z"/>
	<path d="M229.1,121.3c4.6,0,9.2,0,13.8,0c0,0.1,0,0.3,0.1,0.4c-0.4,0.1-0.9,0.2-1.3,0.3c-1.7,0.1-2.5,1-2.5,2.7
		c0,5.7,0,11.4,0,17.1c0,2.8,0,5.6,0.1,8.5c0.1,2.3,0.6,2.8,2.9,3c0.6,0.1,1.3,0.2,1.9,0.3c0,0.2,0,0.3,0,0.5c-4.9,0-9.8,0-14.7,0
		c0-0.1,0-0.2-0.1-0.3c0.3-0.1,0.7-0.4,1-0.4c2,0,2.6-1.1,2.6-2.9c0.1-7.5,0.1-15,0.2-22.4c0-1,0-2,0-2.9c-0.1-2.2-0.7-2.8-2.9-3.1
		c-0.3,0-0.6-0.1-0.9-0.2C229.1,121.6,229.1,121.5,229.1,121.3z"/>
	<path d="M195.8,226.7c0-0.7,0-1.3,0-2.2c2,0,4,0,6,0c6.6,0,13.1,0.1,19.7,0.1c10.4,0,20.8,0,31.3,0.1c10.8,0.1,21.6,0.1,32.5,0.2
		c0.3,0,0.7-0.1,1,0c0.2,0.1,0.6,0.4,0.6,0.7c0,0.2-0.3,0.6-0.5,0.7c-0.3,0.1-0.7,0.1-1,0.1c-5.4,0-10.7,0.1-16.1,0.1
		c-21.1,0.1-42.1,0.2-63.2,0.2C202.6,226.7,199.3,226.7,195.8,226.7z"/>
	<path d="M103,224.6c0,0.8,0,1.4,0,2.2c-2.6,0-5.2,0-7.7,0c-6.6,0-13.2-0.1-19.9-0.1c-10.3,0-20.6,0-30.9-0.1
		c-10.4,0-20.7-0.1-31.1-0.3c-0.5,0-1-0.4-1.5-0.6c0.5-0.3,1-0.7,1.5-0.8c5.3-0.1,10.6-0.1,15.9-0.1c21.6-0.1,43.3-0.2,64.9-0.2
		C97.1,224.6,99.9,224.6,103,224.6z"/>
	<path d="M152.6,108.6c3.7,0,7.5-0.2,11.2,0c14.8,0.9,29.5,1.7,44.2,2.8c8.2,0.6,16.3,1.8,24.5,2.7c0.2,0,0.4,0,0.5,0.1
		c0.3,0.3,0.7,0.6,1,0.9c-0.4,0.2-0.8,0.6-1.2,0.5c-4.2-0.4-8.3-1-12.5-1.4c-9.3-0.8-18.7-1.8-28-2.3c-12.7-0.6-25.4-0.8-38.1-1.2
		C152.6,110.8,152.5,110.6,152.6,108.6z"/>
	<path d="M146.1,108.4c0.3,1.9-0.4,2.5-2.1,2.5c-20.4-0.2-40.7,1-61,2.9c-5.6,0.5-11.2,1.3-16.8,1.9c-0.5,0-1-0.4-1.5-0.5
		c0.4-0.3,0.9-0.8,1.4-0.9c7-0.9,13.9-1.9,20.9-2.5c12.7-1.1,25.5-2,38.2-2.8c6.4-0.4,12.8-0.4,19.1-0.6
		C144.9,108.4,145.5,108.4,146.1,108.4z"/>
	<path d="M165.8,220.2c1.7,0,3.9,0,6.1,0c1.4,0,2.6,0.6,3.1,2c0.5,1.4-0.2,2.4-1.2,3.4c-0.3,0.3-0.6,0.5-1.4,1.1
		c1.6,1.5,3,2.8,4.6,4c0.6,0.5,1.6,0.8,2.3,0.7c0.4-0.1,0.7-1.3,0.7-2c0.1-2.2,0.1-4.4,0-6.6c0-0.9-0.5-1.8-0.8-2.7
		c2.2,0,4.9,0,7.6,0c0,0.7,0,1.4,0,1.8c-1.4-0.3-2.7-0.6-4.2-1c0,1.6,0,2.8,0,4.1c1.3,0,2.6,0,3.9,0c0,0.7,0,1.4,0,1.8
		c-1.3-0.3-2.5-0.6-4.4-1c0.4,2.1,0.3,3.8,1.1,5c0.6,0.9,3.1,0.1,4.1-1c0.2,2.2,0,2.4-2,2.4c-2.2,0-4.4-0.1-6.5,0
		c-2.8,0.2-4.8-1-6.4-3.2c-1.3-1.9-1.4-1.8-3-1.6c-0.6,2.7-0.3,3.9,1.7,4.7c-2,0-3.7,0-5.1,0c0.2-0.8,0.7-1.6,0.7-2.5
		c0.1-2.4,0.1-4.7,0-7.1C166.6,221.6,166.1,220.9,165.8,220.2z M169.1,221.2c0,1.1,0,2,0,3c0,0.8-0.4,1.8,1,1.9
		c1.2,0.1,2.1-0.2,2.5-1.5C173.3,222.4,171.8,220.9,169.1,221.2z"/>
	<path d="M140.3,232c-1.5,0-3,0-4.1,0c0.3-0.8,0.9-1.6,0.9-2.5c0.1-2.6,0.1-5.2,0.1-7.8c0-0.6,0.1-1.2,0.2-2.1c3.5,3.1,6.8,6,10.1,9
		c0-2.5,0.1-4.7-0.1-7c0-0.5-0.8-0.9-1.2-1.4c1.2,0,2.6,0,3.6,0c-0.2,0.8-0.6,1.6-0.7,2.5c-0.1,2.6-0.1,5.2-0.1,7.8
		c0,0.6-0.1,1.1-0.2,2.2c-3.6-3.1-6.8-5.9-10.4-9c0.1,2.6,0.2,4.8,0.4,7.1C139,231.1,139.8,231.5,140.3,232z"/>
	<path d="M123.2,219.9c-0.1,1.6-0.1,2.5-0.2,3.4c-0.8-1.6-2.2-2.5-3.8-2.3c-1.5,0.1-3.3,0.4-4.5,1.2c-2.1,1.5-1.8,5.3,0.1,7.3
		c2.4,2.5,5.8,2.4,8.2-0.1c0.3,2.1-0.2,2.9-2.2,3c-1.6,0-3.2,0-4.8-0.3c-3.9-0.8-5.6-3.1-5.4-6.6c0.2-2.9,2.8-5.2,6.4-5.4
		C119,219.8,121,219.9,123.2,219.9z"/>
	<path d="M133,227.3c-1-1.1-3.6-1.7-3.7-0.9c-0.2,1.4-0.3,3,0.2,4.3c0.3,1,3.4,0.2,4.3-0.9c0.6,1.8,0.2,2.4-1.6,2.4
		c-2.2,0-4.4,0-6.4,0c1.7-3.4,0.6-7,0.8-10.3c0-0.5-0.6-1.1-1-1.7c2.4,0,5.1,0,8,0c0,0.5-0.1,1.3-0.1,1.6c-1.4-0.3-2.7-0.6-4.3-0.9
		c0,1.5,0,2.7,0,4.1c1.3,0,2.7,0,4.2,0C133.2,225.7,133.1,226.5,133,227.3z"/>
	<path d="M156.6,220.9c-1.8,0.3-3.3,0.5-4.8,0.8c-0.1-1.8-0.1-1.7,2-1.6c3.3,0.1,6.5,0,10,0c0,0.7,0,1.4,0,1.8
		c-1.5-0.3-2.9-0.6-4.6-1c0,3.6,0,6.8,0.1,9.9c0,0.4,0.9,0.7,1.5,1.2c-1.8,0-3.5,0-5.2,0c0.3-0.5,1-1,1-1.4
		C156.7,227.4,156.6,224.4,156.6,220.9z"/>
	<path d="M149.2,111.9c-1-0.1-1.7-0.8-1.6-2c0-1.2,0.5-2.2,1.8-2.4c0.9-0.2,1.9,1.2,1.9,2.4C151.3,111.2,150.6,112,149.2,111.9z"/>
	<path d="M171,81.1c0.1-0.6,0.1-1.5,0.2-2.3c1.2-5.6,7-7.5,11.4-3.7c3.6,3.2,4.4,10.9,1.4,14.8c-1.7,2.2-4.9,2.8-7.8,1.3
		C172.2,89.1,171.1,85.5,171,81.1z"/>
	<path d="M236,82.8c0.8,2.7,1.5,4.9,2.3,7.6c-1.9-0.2-3.5-0.4-5.4-0.7C233.9,87.3,234.8,85.2,236,82.8z"/>
	<path d="M251.2,180.6c0-4.6,0-9.1,0-13.6c2.9-0.4,3.7,0.3,3.7,3.1c0,2.4,0,4.8,0,7.2C254.9,180.1,254.2,180.7,251.2,180.6z"/>
	<path d="M173.1,186.2c0,5.6,0,11.3,0,16.9c0,1.9-0.6,2.5-2.1,2.4c-1.6,0-2-0.9-2-2.4c0-11.3,0-22.7,0-34c0-1.5,0.4-2.3,2-2.3
		c1.6,0,2.1,0.5,2.1,2.4C173.1,174.9,173.1,180.6,173.1,186.2z"/>
	<path d="M66.1,205.5c0-12.9,0-25.7,0-38.5c2.6-0.4,3.4,0.3,3.4,2.9c0,10.8,0,21.6,0,32.4C69.6,205,69,205.6,66.1,205.5z"/>
	<path d="M17.4,187.9c4,6,7.6,11.5,11.4,17.1c-2.9,2.5-6.4,4.2-10.5,4.2c-3.9,0-6.8-2.1-8.4-5.6c-1.6-3.6-1.2-7.2,1.3-10.2
		C12.9,191.3,15.3,189.7,17.4,187.9z M17,191c-3.9,1.9-6.5,5.7-6.2,9.3c0.3,3.3,1.9,5.8,5,7c3,1.2,8.2-0.2,10.3-2.5
		C23.1,200.1,20.1,195.6,17,191z"/>
	<path d="M23,182.5c-1.5-3.3-3-6.3-2.9-9.9c0-2.4,0.7-4.4,2.9-5.4c2.2-1,4.5-0.9,6.5,0.7c2,1.6,2.4,3.8,1.8,6.2
		c-0.7,2.9-2.7,4.7-5,6.3C25.3,181.2,24.2,181.8,23,182.5z M23.5,180.4c2.9-1.8,5.2-3.3,5.9-6.3c0.5-1.8,0.2-3.5-1.3-4.6
		c-1.3-1-2.9-1.1-4.4-0.3c-1.6,0.8-2.1,2.5-1.9,4.1C22.2,175.5,22.9,177.8,23.5,180.4z"/>
</g>
</svg>
