<?xml version="1.0" encoding="utf-8"?>
<!-- Generator: Adobe Illustrator 20.1.0, SVG Export Plug-In . SVG Version: 6.00 Build 0)  -->
<svg version="1.1" id="Layer_1" xmlns="http://www.w3.org/2000/svg" xmlns:xlink="http://www.w3.org/1999/xlink" x="0px" y="0px"
	 viewBox="0 0 300 233" style="enable-background:new 0 0 300 233;" xml:space="preserve">
<style type="text/css">
	.st0{fill:#FFFFFF;}
</style>
<g>
	<path class="st0" d="M112.4,0.6c-0.3,5.2-0.6,10.4-0.9,15.6c-0.1,1.4-0.2,2.7-0.3,4.6c2.7,0,5.2,0.1,7.8,0.1
		c4.1,0,8.3-0.1,12.4-0.2c1.2,0,1.8,0.3,1.8,1.7c-0.1,3.8,0,7.7,0,11.7c3.3,0,6.3,0,9.5,0c1-10,2.1-20,3.1-30.1c3.4,0,6.5,0,10,0
		c-1,10.1-2,20.2-2.9,30.5c2.2,0.1,4.2,0.2,6.3,0.3c2.9,0,5.8,0,8.6,0c1.2,0,1.7-0.5,1.6-1.6c0-2-0.2-3.9-0.1-5.9
		c0-0.7,0.6-1.4,1-2.1c0.4,0.6,0.9,1.3,1.2,2c0.2,0.6,0,1.4,0,2.5c1.5,0,2.9,0,4.3,0c5.3,0,10.7,0,16-0.1c3,0,3-0.1,3.2-2.9
		c1.7-0.5,2.3,0,2.2,1.8c0,1.9,0,3.9,0,6c0.7,0,1.4,0,2,0c12.6,0,25.1,0,37.7,0c0.8,0,1.9,0.4,2.4-0.8c0-0.1,0.9-0.1,1,0.1
		c0.6,1.3,1.7,1,2.7,0.9c1.4,0,2.9-0.2,4.3-0.1c0.7,0.1,1.6,0.5,1.9,1.1c0.2,0.4-0.4,1.2-0.6,1.9c-0.2,0.6-0.4,1.1-0.4,1.7
		c-0.2,4.5,0,9-0.7,13.4c-0.8,4.9-3.7,8.7-8.2,11.1c-2.3,1.2-4.5,1.2-7,0.8c-18.1-2.9-36.3-4.7-54.6-5.7c-16.9-0.9-33.7-1-50.6-0.2
		c-21.2,0.9-42.3,3.1-63.3,6.5c-1.5,0.2-3,0.5-4.4,0.6c-1.9,0.1-3.9,0-6,0c0-4.6-0.1-8.8,0-13.1c0.1-4.7,0.2-9.4,0.4-14.1
		c0.1-1,0.8-1.9,1.1-2.9c0.2-0.6,0.4-1.2,0.4-1.8c0-1.8-0.1-3.6,0-5.3c0-0.9,0.3-1.8,1.4-1.7c1.2,0,1.3,0.9,1.3,1.8
		c0.1,2.5,0.2,4.9,0.1,7.4c-0.1,1.5,0.9,1.7,1.8,1.7c1.7,0.2,3.3,0.1,5,0.1c3.1,0,6.2-0.1,9.3,0.1c0.9,0,1.8,0.7,2.7,1.1
		c0.5,0.2,0.9,0.6,1.3,0.6c5.2,0,10.3,0,15.6,0c0-0.9,0-1.6,0-2.3c-2.6-1.6-2.8-2.4-1.3-5.3c0.2-0.4,0-0.9,0-1.4
		c0-0.6-0.2-1.4,0.1-1.7c0.3-0.3,1.2-0.4,1.7-0.2c3.4,1.4,3.7,0.8,3.6-2.5c-0.1-1.4,0.2-2.5-1.5-3.2c-1-0.4-0.7-1.9,0.4-2.2
		c0.8-0.2,1.6-0.2,2.4-0.2c1.4,0,2.1-0.3,2.1-1.9c0-1,0.2-2.1,0.5-3c0.4-1.2,1.2-1.9,2.7-1.8c0.2,0.9,0.3,1.6-0.6,2.5
		c-0.7,0.6-0.5,2.3-0.5,3.5c0,0.3,1.1,0.7,1.7,0.7c1.2,0.1,2.5,0,3.9,0c0.1-1.5,0.3-2.8,0.4-4c0.3-4.5,0.6-9.1,0.9-13.6
		c0.1-0.9,0.5-1.7,0.7-2.6C111.4,0.6,111.9,0.6,112.4,0.6z M111.8,53.8c2.3,0,4.4,0,6.6,0c4.3,0,4.3,0,3.9-4.3
		c0-0.1-0.1-0.2-0.3-0.6c-1.9,0-4,0-6,0C111.3,48.8,111.2,48,111.8,53.8z M210.2,37.9c-3.2,0-6.2,0-9.2,0c-0.3,0-0.9,0.5-1,0.8
		c-0.1,1.3,0,2.6,0,4c3.6,0,6.9,0,10.3,0C210.2,41.2,210.2,39.7,210.2,37.9z M221.1,42.8c0-1.7,0-3.3,0-4.7c-3,0-5.7,0-8.5,0
		c0,1.6,0,3.1,0,4.7C215.5,42.8,218.3,42.8,221.1,42.8z M223.7,37.9c0,1.7,0,3.2,0,4.9c2.8,0,5.5,0,8.4,0c0-1.7,0-3.3,0-4.9
		C229.2,37.9,226.6,37.9,223.7,37.9z M234.5,37.9c0,1.8,0,3.3,0,4.9c2.6,0,5,0,7.6,0c0-1.4,0.1-2.6-0.1-3.7
		c-0.1-0.4-0.7-1.1-1.1-1.1C238.8,37.8,236.7,37.9,234.5,37.9z M153.8,44.4c0-2.3,0-4.5,0-6.8c-0.9,0-1.6,0-2.4,0.1
		c-0.5,0.1-1.2,0.5-1.2,0.8c-0.1,1.8-0.1,3.7-0.1,5.6C151.5,44.2,152.5,44.3,153.8,44.4z M147.5,37.7c-3.5-0.5-3.8-0.3-3.8,2.9
		c0,0.7,0,1.5,0,2.2c-0.1,1.5,1,1.3,1.9,1.3c0.9,0,2,0.2,2-1.2C147.5,41.2,147.5,39.5,147.5,37.7z M187.5,38c0,2.1,0,4,0,6.1
		c1.3,0,2.4,0,3.6,0c0-2.1,0-4.1,0-6.1C189.8,38,188.7,38,187.5,38z M166.6,44.5c0-2.1,0.1-4.1-0.1-6c0-0.4-1.3-0.8-2-0.9
		c-0.4-0.1-1.2,0.5-1.2,0.9c-0.1,1.9-0.1,3.9-0.1,5.8C164.3,44.3,165.3,44.4,166.6,44.5z M176,44.3c1.3,0,2.1,0.1,2.8,0
		c0.4-0.1,0.9-0.5,1-0.8c0.1-1.8,0-3.5,0-5.4c-0.9-0.1-1.7-0.2-2.4-0.1c-0.4,0-1,0.4-1,0.6C176.1,40.4,176.1,42.2,176,44.3z
		 M157,37.7c0,2.3,0,4.4,0,6.6c1.3-0.1,2.3-0.1,3.3-0.2c0-2.2,0-4.3,0-6.4C159.2,37.7,158.2,37.7,157,37.7z M182.2,44.3
		c1.2,0,2.2,0,3.4,0c0-2.1,0-4.2,0-6.3c-1.2,0-2.3,0-3.4,0C182.2,40.2,182.2,42.2,182.2,44.3z M131.2,36.5c-1-0.1-1.6-0.3-2.2-0.2
		c-0.4,0.1-1.1,0.6-1.1,0.9c-0.1,1.9-0.1,3.8-0.1,5.8c0.6,0,1-0.1,1.4,0c1.7,0.3,2.1-0.5,2-2C131.1,39.6,131.2,38.1,131.2,36.5z
		 M173.1,44.3c0-2.3,0-4.3,0-6.3c-1.1,0-2,0-3.1,0c0,2.1,0,4,0,6.1C171,44.2,172,44.2,173.1,44.3z M185.9,51.1
		c0.1,1.3,0.2,2.3,0.3,3.3c5.2,0.4,5.7,0.9,4.9-3.3C189.5,51.1,187.9,51.1,185.9,51.1z M155.1,50.9c-4.3-1.3-5.4-0.6-4.8,3.1
		C154.9,55,155.5,54.6,155.1,50.9z M228.8,50.7c0,1.2,0.1,2.3,0,3.3c-0.1,1.2,0.2,1.9,1.7,1.9c1.4,0,1.8-0.7,1.8-1.9
		c0-1.1,0-2.1,0-3.2c-0.6-0.1-0.8-0.1-1.1-0.1C230.4,50.7,229.7,50.7,228.8,50.7z M69.6,52c-0.1-1,0-1.8-0.3-2.4
		c-0.3-0.6-1-1.3-1.4-1.3c-0.5,0-1.3,0.8-1.4,1.3c-0.2,0.9-0.1,1.9-0.1,2.9c0.1,1.5,1.4,2.3,2.5,1.4C69.4,53.5,69.5,52.5,69.6,52z
		 M77.8,54.3c0-1.5,0.2-2.8-0.1-4c-0.1-0.7-1-1.3-1.5-1.9c-0.5,0.6-1.3,1.2-1.4,1.8c-0.2,1.3-0.1,2.7-0.1,4.1
		C75.7,54.3,76.6,54.3,77.8,54.3z M207.5,50.8c0,1.7,0,3.2,0,4.7c2.8,0.6,3,0.5,3-2.3c0-0.8-0.1-1.6-0.2-2.4
		C209.3,50.8,208.4,50.8,207.5,50.8z M226.5,55.5c0-1.6,0-3.2,0-4.7c-1.1,0-2,0-3,0c0,1.6,0,3.1,0,4.7
		C224.5,55.5,225.4,55.5,226.5,55.5z M201.1,50.8c0,1.7,0,3.2,0,4.8c1.1,0,2,0,3,0c0-1.6,0-3.2,0-4.8
		C203.1,50.8,202.2,50.8,201.1,50.8z M102.1,39.5c3.4,0.6,4.3,0.4,4.4-1c0.1-2-0.2-2.2-2.7-2.3C102,36.3,101.8,36.5,102.1,39.5z
		 M109,39.5c3.2,0.6,4.2,0.4,4.3-0.8c0.2-2-0.2-2.4-2.7-2.4C108.9,36.2,108.8,36.5,109,39.5z M242.1,50.9c-2.9-0.4-2.9-0.4-2.9,2.1
		c0,0.5,0,0.9,0,1.4c-0.1,1.1,0.4,1.6,1.5,1.5c1.1,0,1.5-0.4,1.5-1.6C242.1,53.2,242.1,52.1,242.1,50.9z M145.9,8.6
		c2.8,1.2,5.4,0.6,8.2,0.2C152.7,6.6,147.6,6.5,145.9,8.6z M179.6,54.6c0.7-4.2,0.5-4.4-3.5-3.7c0.1,1.1-0.2,2.6,0.4,3.3
		C176.9,54.9,178.5,54.6,179.6,54.6z M234.5,50.8c0,1.7,0,3.4,0,5c2.7,0,2.7-0.2,2.7-3.5C237.1,50.2,235.8,50.7,234.5,50.8z
		 M140.4,44c0-1.9,0-3.8,0-5.7C138,38,138,38,138,40.1c0,0.7,0.2,1.5,0.1,2.2C137.9,44,138.6,44.4,140.4,44z M107.6,24.1
		c0,1.8,0,3.4,0,5.1c0.9,0,1.6,0,2.5,0c0-1.7,0-3.4,0-5.1C109.2,24.1,108.4,24.1,107.6,24.1z M124.5,36.6c-1.7-0.6-2.4-0.1-2.4,1.6
		c0,1.4,0,2.7,0,4.2c1,0,1.6,0,2.4,0C124.5,40.3,124.5,38.5,124.5,36.6z M199.9,47.3c3.7,0,7.1,0,10.5,0c0.1-0.2,0.1-0.4,0.2-0.5
		c-0.5-0.2-0.9-0.5-1.4-0.5C204.4,45.6,200.8,46,199.9,47.3z M121.7,29.9c0-1.5,0.1-2.6,0-3.7c0-0.3-0.5-0.8-0.8-0.8
		c-0.6-0.1-1.7,0.1-1.7,0.2c-0.2,1.2-0.3,2.4,0,3.5C119.2,29.5,120.6,29.5,121.7,29.9z M123.3,25.5c0,1.4,0,2.7,0,3.9
		c3,0.5,3.5-0.2,2.6-3.9C125.1,25.5,124.3,25.5,123.3,25.5z M115.5,40.1c1.6-0.3,2.8-0.3,3.6-0.8c0.4-0.3,0.3-2-0.1-2.5
		c-0.4-0.5-2.1-0.6-2.5-0.2C115.9,37.3,115.9,38.5,115.5,40.1z M232.3,46.9c-0.1-0.2-0.1-0.5-0.2-0.7c-2.5,0-5.1,0-7.6,0
		c-0.3,0-0.5,0.4-0.8,0.6c0.2,0.2,0.5,0.5,0.7,0.5c2.2,0.1,4.3,0.2,6.5,0.2C231.3,47.5,231.8,47.1,232.3,46.9z M221,47.6
		c0.1-0.3,0.2-0.5,0.3-0.8c-0.4-0.2-0.9-0.7-1.3-0.7c-2,0-4,0-6,0.1c-0.5,0-0.9,0.4-1.4,0.6c0.4,0.3,0.9,0.7,1.3,0.7
		C216.3,47.6,218.6,47.6,221,47.6z M234.5,46.1c-0.1,0.2-0.2,0.4-0.3,0.6c0.4,0.3,0.8,0.8,1.2,0.9c1.8,0.1,3.7,0.1,5.5,0
		c0.4,0,0.8-0.4,1.2-0.7c-0.4-0.3-0.8-0.8-1.2-0.8C238.7,46.1,236.6,46.1,234.5,46.1z M131.6,50c0.2,1.3,0.4,2.5,0.7,3.7
		c0,0.2,1.5,0.2,1.5,0c0.4-1.1,0.5-2.3,0.8-3.7C133.5,50,132.7,50,131.6,50z M96.2,36.2c0.4,1.6,0.5,2.6,1,3.4
		c0.2,0.3,1.9,0.1,2.1-0.2c0.3-0.8,0.5-2.1,0.1-2.7C99,36.2,97.6,36.4,96.2,36.2z M93.8,43.3c0-0.1,0-0.3,0-0.4c-4.5,0-9,0-13.5,0
		c0,0.1,0,0.3,0,0.4C84.8,43.3,89.3,43.3,93.8,43.3z M90.7,53.4c0.9-3.6,0.4-4.7-1.8-4.4c0,1.4,0,2.9,0,4.4
		C89.6,53.4,90.1,53.4,90.7,53.4z M103.4,24.1c0,1.5-0.1,3,0,4.4c0,0.4,0.5,0.7,0.8,1c0.3-0.3,0.9-0.6,0.9-1c0.1-1.5,0-2.9,0-4.5
		C104.6,24.1,104.1,24.1,103.4,24.1z M162.2,50.5c0,1.2-0.1,2.2,0,3.2c0,0.3,0.5,0.9,0.7,0.8c0.4-0.1,1-0.4,1.1-0.7c0.1-1,0-2,0-3.1
		c0-0.1-0.1-0.2-0.3-0.3C163.4,50.5,162.9,50.5,162.2,50.5z M133.4,38.2c0,0.8,0.1,1.4,0.1,2c1.2,0,2.2,0,3.2,0c0-0.7,0-1.4,0-2
		C135.6,38.2,134.6,38.2,133.4,38.2z M244.9,37.7c-0.2,0.1-0.4,0.3-0.5,0.4c0,1.4,0,2.7,0,4.1c0,0.3,0.4,0.7,0.7,0.7
		c0.2,0,0.7-0.4,0.7-0.6c0.1-1.1,0.1-2.3,0-3.4C245.7,38.4,245.2,38.1,244.9,37.7z M100.8,29.5c0.1-0.1,0.2-0.3,0.4-0.4
		c0-1.3,0-2.6,0-3.9c0-0.4-0.4-0.8-0.6-1.2c-0.2,0.4-0.6,0.8-0.7,1.2c-0.1,1.2-0.1,2.4,0,3.6C100,28.9,100.5,29.2,100.8,29.5z
		 M129.5,27.9c0.4-1.2,0.2-2-1-1.8c-0.5,0.1-1.3,0.6-1.2,0.9C127.4,28.4,128.5,27.8,129.5,27.9z M244.4,54.2c0.1,0,0.3,0,0.4,0.1
		c0.2-1,0.5-1.9,0.6-2.9c0-0.2-0.3-0.4-0.5-0.7c-0.2,0.2-0.5,0.3-0.5,0.5C244.4,52.2,244.4,53.2,244.4,54.2z"/>
	<path class="st0" d="M34.2,116.2c-0.2-14.5-0.4-28.7-0.6-42.9c77.8-17,155.4-17,232.9-0.1c0,14.2,0,28.4,0,43
		C188.9,99.3,111.6,99.3,34.2,116.2z M251.8,108.1c-35-7.2-70.3-10.8-106.1-10.3c-35.7,0.4-71,5.1-106,11.6
		c-0.1-0.3-0.2-0.5-0.2-0.7c-0.1-9.9-0.2-19.8-0.3-29.7c0-1.1,0.5-1.3,1.4-1.5c9.9-1.6,19.7-3.6,29.6-4.8c15.7-2,31.4-3.7,47.2-5
		c16.4-1.4,32.9-1.5,49.4-0.9c9.7,0.3,19.4,0.8,29.1,1.7c13,1.3,26,2.9,38.9,4.7c8.8,1.2,17.6,2.9,26.5,4.4c0,3.9,0,7.5,0,11.2
		c0,3.7,0,7.4,0,10.9c0.6-0.2,1.1-0.4,2-0.6c-1.5-0.1-2.1-0.6-1.5-2c0.5,0,1,0,1.2,0c-0.4-0.3-1.3-1-1.3-1.2c0.4-0.9-0.1-1.8,0-2.7
		c0.5,0,1-0.1,1.5-0.1c-1-0.3-2-0.6-1.3-2.1c0.6,0,1.1,0,1.6,0c-0.5-0.4-1.2-0.7-1.6-1.2c-0.1-0.2,0.4-0.9,0.5-1.1
		c-0.2-0.6-0.5-1.1-0.4-1.5c0.1-0.3,0.6-0.5,0.7-0.6c-0.3-0.6-0.6-1.2-1-1.9c0.8-0.1,1.2-0.1,1.4-0.2c-0.4-0.4-1.1-0.9-1-1.4
		c0.1-1.6,0.5-3.1,0-4.7c0-0.1,0.1-0.3,0.2-0.5c0.4,0,0.8,0,1.3,0c-2.4-0.7-1.1-2.9-1.8-4.3c-0.2,1.2-0.4,2.2-0.7,3.5
		c-74-16.9-147.9-15.8-221.8,0c-0.3-1.2-0.4-2-0.6-3c-0.8,1.3,0.5,3.3-1.4,3.7c0.3,0.2,1,0.5,1,0.9c0.1,0.4-0.4,0.9-0.5,1.2
		c0.2,0.5,0.5,1.1,0.8,1.7c-0.9,0.3-1.4,0.5-2.3,0.8c0.8,0,1.4,0,1.9,0c0.8,1.5-0.5,1.6-1.6,2c0.7,0.1,1.2,0.1,2.2,0.3
		c-0.6,0.8-1,1.4-1.3,1.8c0.2,0.1,0.9,0.4,0.9,0.7c0,0.5-0.4,1-0.6,1.3c0.3,0.4,0.6,1,1,1.6c-0.9,0.3-1.5,0.5-2.4,0.8
		c0.9,0.1,1.5,0.1,2.2,0.1c0.1,0.2,0.2,0.3,0.3,0.5c-0.6,0.5-1.1,1.1-1.5,1.4c0.3,0.2,0.8,0.4,1.3,0.7c-0.3,0.4-0.5,0.8-0.5,0.8
		c0.3,0.8,0.5,1.3,0.7,1.9c-0.8,0.3-1.3,0.5-1.8,0.7c0,0.1,0,0.1,0,0.2c0.5,0,1.1,0,1.6,0c0.1,0.1,0.2,0.3,0.3,0.4
		c-0.5,0.6-1,1.2-1.4,1.7c0.2,0,0.6,0.1,1.5,0.1c-0.5,0.8-0.8,1.4-1.1,1.9c0.2,0.2,0.6,0.5,0.9,0.9c-0.7,0.6-1.3,1.1-1.9,1.6
		c0.4,0,1.1,0,1.7,0c0.7,1.8-1,1.5-1.8,2c0.7,0.1,1.3,0.1,2.2,0.2c-0.2,0.6-0.2,1.1-0.4,1.3c-0.3,0.3-0.8,0.4-1.4,0.6
		c0.7,0.1,1.2,0.2,1.7,0.3c-0.1,1.3-0.1,1.3-2.6,2.1c0.9,0,1.7,0,2.6,0c0.1,0.8,0.2,1.6,0.2,2.4c-0.1-1.9,0.5-3,2.7-3.3
		c14.7-2.1,29.4-4.7,44.2-6.6c20.1-2.6,40.4-3.5,60.6-3.6c16.4-0.1,32.8,0.2,49.2,1.9c15.4,1.6,30.7,3.6,46.1,5.5
		C245.2,107,248.5,107.6,251.8,108.1z M80.8,96.8c-2.1,0-2.7-1.3-3-3.1c-0.9-5.1-2-10.3-3.1-15.4c-0.1-0.5-0.3-0.9-0.4-1.4
		c-0.2,0-0.3,0-0.5-0.1c-2.3,5.5-4.6,11.1-7,16.9c-3-5.1-5.9-9.9-8.8-14.7c-0.5,0.5-0.6,0.9-0.7,1.3c-0.6,5.7-1.1,11.3-1.7,17
		c-0.1,1.1-0.8,2.1-1.2,3.1c1.3-0.2,3.1-0.5,4.9-0.8c-2,0-1.8-1.4-1.7-2.7c0.1-0.8,0.1-1.6,0.2-2.4c0.2-2.6,0.4-5.2,0.7-8.2
		c2.7,4.4,5.1,8.4,7.7,12.7c2.2-5.2,4.2-10,6.2-14.7c0.1,0,0.2,0,0.4,0.1c0.8,4.3,1.6,8.5,2.4,13C76.8,97.2,78.8,97,80.8,96.8z
		 M178.3,94c1.7-0.4,3.5-0.5,5.2-1.2c4-1.6,6.5-5.9,6.2-10.2c-0.3-4.9-3.1-8.3-7.8-9.5c-5.3-1.4-10.3,0.1-12.8,3.9
		C164.9,83.2,168.2,93.4,178.3,94z M205.5,83.5c3.7-2.6,6.2-6.6,11.4-7.4c-2.5-0.3-4.4-0.5-6.3-0.7c0.2,1.8-3.1,5.5-7.2,8
		c0-2.1-0.1-4.1,0.1-6.1c0.1-0.9,0.8-1.7,1.2-2.5c-2-0.2-4.3-0.4-6.6-0.6c1.5,0.4,2.2,1.2,2.1,2.7c-0.2,5-0.4,10-0.6,15
		c0,1.3-0.3,2.3-1.8,2.6c2.2,0.2,4.3,0.3,6.7,0.5c-1.7-1.2-2.2-7.1-1-10.1c1.8,2.3,3.7,4.5,5.3,6.8c2.3,3.4,5.4,4.9,9.4,4.6
		C212.6,93.6,209.8,88,205.5,83.5z M145.6,81.2c-0.1,0-0.3-0.1-0.4-0.1c0-1.9,0-3.9,0-5.8c0-1.3,0.2-2.5,2.2-2.8c-2.8,0-5.1,0-7.5,0
		c1.3,0.2,2,0.9,2,2.2c0,5.2,0,10.5,0,15.7c0,0.8-0.5,1.5-0.7,2.2c1.8,0,3.9,0,5.8,0c-0.5-0.5-1.4-0.9-1.4-1.5
		c-0.1-2.8-0.1-5.6-0.1-8.6c1.9,2.2,3.9,4.2,5.5,6.4c2.5,3.2,5.6,4.6,9.6,3.8c-5.6-2.4-8.6-7.6-12.9-11.7c3.6-3,5.9-6.9,10.8-8.5
		c-2.4,0-4.3,0-5.8,0c-0.4,0.9-0.5,1.8-1.1,2.4C149.7,77,147.6,79.1,145.6,81.2z M87.8,75.6c2,0,2.3,1.2,2.4,2.8
		c0.1,3.3,0.2,6.7,0.4,10c0.2,3.7,2,6.1,5.1,6.7c5.2,1,11.5-0.9,11.5-8.8c0-3.2-0.2-6.4-0.1-9.7c0-1,0.6-1.9,1-2.8
		c-1.6,0.1-3.6,0.3-5.6,0.4c1.4,0.1,2.2,0.7,2.2,2.2c0.1,4,0.3,8,0.1,12.1c-0.1,3.5-2.3,5.4-5.6,5.5c-3,0-4.9-2-5.1-5.6
		c-0.2-3.6-0.4-7.1-0.4-10.7c0-0.9,0.6-1.9,1-2.8C92.7,75.1,90.2,75.3,87.8,75.6z M246.4,100.6c-2-0.7-2.5-2.5-3.1-4.2
		c-1.8-5.2-3.5-10.3-5.2-15.5c-0.3-0.9-0.7-1.7-1.2-3c-0.6,1-0.9,1.6-1.2,2.2c-2.3,4.7-4.6,9.5-6.9,14.3c-0.7,1.5-1.3,3.1-3.5,3.2
		c1.8,0.2,3.6,0.4,5.5,0.7c-0.3-0.4-0.8-0.9-0.8-1.1c0.6-1.7,1.1-3.5,2-5c0.2-0.4,1.6-0.2,2.5-0.2c1,0.1,2.1,0.2,3.1,0.4
		c0.4,0.1,1,0.3,1.1,0.6c0.7,2.2,1.4,4.4,2.1,6.8C242.6,99.9,244.5,100.2,246.4,100.6z M128.5,76.8c0.2-4.5,0-4.7-4.3-4.3
		c-0.9,0.1-1.8,0.3-2.6,0.7c-3.1,1.4-4.2,4.7-2.2,7.6c0.8,1.2,1.9,2.1,3,3c1,0.9,2.1,1.6,3.1,2.5c1.2,1.1,1.6,2.6,0.9,4.1
		c-0.7,1.6-2.2,2.1-3.8,2.1c-1.7-0.1-3-0.8-3.5-2.5c-0.2-0.5-0.3-0.9-0.5-1.7c-0.8,5.2-0.6,5.5,4.3,5.4c0.4,0,0.8,0,1.2-0.1
		c4.9-0.7,7.1-5.8,4.2-9.6c-0.9-1.1-2.1-2-3.2-2.9c-1-0.9-2.2-1.5-3.1-2.5c-1.7-1.8-0.9-4.2,1.4-4.8
		C125.4,73.2,126.8,73.9,128.5,76.8z"/>
	<path class="st0" d="M98.9,159.4c0,1.7,0,3.4,0,5.2c5.5-6.5,12.6-6.3,19.7-5.2c4,0.6,7.1,2.8,8.7,6.9c2.9-6.4,8.6-7.2,14.4-7.4
		c5.8-0.1,11.3,0.8,14.5,6.8c2.8-5.4,7.7-6.7,13-6.7c3.2,0,6.4,0.6,9.6,0.9c0.6,0,1.3-0.6,1.9-0.6c4.8-0.1,9.7,0,14.6,0
		c0.8,6.9,1.6,13.8,2.4,20.6c0.1,0,0.2,0,0.2,0c0.8-6.8,1.6-13.7,2.4-20.6c0.8,0,1.5,0,2.1,0c17.1,0,34.2,0,51.3,0
		c2.3,0,4.6,0.4,7,0.6c0.2-0.1,0.6-0.6,1-0.6c4.8-0.1,9.6,0,14.5,0c1.3,4.5,2.6,8.9,4,13.8c1.4-4.3,2.8-8.2,4-12.2
		c0.4-1.3,1-1.7,2.3-1.6c4.4,0.1,8.7,0,13.3,0c-1.4,3.7-2.7,7.2-4,10.7c-2.7,7.1-5.3,14.2-8,21.3c-0.4,1.1-0.6,2.3-0.6,3.5
		c-0.1,6.1,0,12.2,0,18.3c0,0.6,0,1.2,0,2.1c-0.8,0-1.4,0-2,0c-9.2,0-18.3-0.1-27.5,0.1c-2.2,0-3.2-1-3.8-2.7
		c-0.4-1.1-0.6-2.2-1.1-3.8c0,2.4,0,4.3,0,6.3c-13.3,0-26.4,0-39.7,0c0-11.5,0-23,0-34.4c-0.1,0-0.2,0-0.4,0
		c-1.6,11.5-3.3,22.9-4.9,34.5c-6.8,0-13.6,0-20.4,0c-0.4-2.6-0.8-5.1-1.2-7.8c-0.7,1.2-1.3,2.5-2.1,3.5c-1.9,2.5-4.7,3.7-7.7,4.4
		c-3.9,0.9-7.8,0.9-11.6,0c-3.7-0.9-6.9-2.5-8.9-6.2c-3.4,5.3-8.4,6.9-14.2,6.8c-5.6-0.1-10.8-1.2-14.3-6.4
		c-3.2,5.7-8.7,6.3-14.2,6.4c-5.6,0.1-10.8-0.8-14.6-6.1c0,2,0,3.6,0,5.4c-5.4,0-10.5,0-15.9,0c0-2.4,0-4.9,0-7.4
		c-2.3,3.8-5.4,6.2-9.7,7.1c-1,0.2-1.9,0.4-2.9,0.4c-6,0-12.1,0-18.2,0c-0.1-0.6-0.2-1.1-0.3-1.9c-7.9,5-14.6,2.5-20.9-3.2
		c-0.7,0.5-1.3,0.9-1.9,1.3c-5.4,3.7-11.4,5.2-17.9,4.2c-12.7-2-13.5-14.6-8.6-21.3c2.5-3.4,5.8-5.7,9.4-7.8
		c0.6-0.4,1.3-0.7,1.7-0.9c-0.6-3.1-1.5-6-1.6-8.9c-0.3-10.3,9.7-16.5,19.4-12.2c5.7,2.5,7.6,9.3,4.5,14.8c-0.3,0.5-0.6,1-0.9,1.6
		c5.7,0,11.3,0,17,0c0-7.1,0-14.2,0-21.4c0.5-0.1,0.8-0.2,1.1-0.2c5.8,0,11.5-0.1,17.3,0c5.4,0.2,9.7,2.5,12.5,8c0-2.9,0-5.3,0-7.9
		C88.3,159.4,93.5,159.4,98.9,159.4z M297.4,160.7c-3.3,0-6.3,0.1-9.4,0c-1.3,0-1.8,0.4-2.2,1.6c-1.6,4.9-3.2,9.8-4.8,14.7
		c-0.2,0.5-0.4,1-0.7,1.8c-1.8-6.3-3.5-12.2-5.2-18c-4,0-7.7,0-11.5,0c0.3,1.1,0.5,2.1,0.8,3.1c-3.1-2.2-4.2-2.9-7.9-3.1
		c-5.6-0.2-11.3-0.1-16.9-0.1c-0.1,0-0.2,0.1-0.5,0.3c0,14.9,0,30,0,45c-4.1,0-7.9,0-11.8,0c0-6,0-11.8,0-17.9c2.3,0,4.5,0,6.8,0
		c0.5,0,1.3-0.4,1.3-0.7c0.1-2,0.1-4,0.1-6.2c-2.9,0-5.5,0-8.1,0c0-4.6,0-9,0-13.6c2.3,0,4.5,0,6.6,0c0.5,0,1.4-0.5,1.4-0.7
		c0.1-2,0.1-4.1,0.1-6.2c-6.3,0-12.3,0.1-18.2,0c-1.7,0-2.1,0.5-2.1,2.1c0.1,16.1,0,32.2,0,48.4c0,0.6,0,1.2,0,1.9
		c12.1,0,24,0,36.1,0c0-8.4,0-16.6,0-24.9c3.3,0,3.6,0.3,3.6,3.3c0,4.4-0.1,8.8,0,13.1c0.1,2.3,0.5,4.7,0.9,7c0.2,1.1,1,1.6,2.3,1.6
		c2.6-0.1,5.3,0,7.9,0c0.8,0,1.5,0,2.3,0c-0.5-1.6-1.1-3-1.2-4.3c-0.3-5.2-0.4-10.3-0.5-15.5c-0.1-5.2-1-6.7-5.8-8.6
		c-0.2-0.1-0.3-0.2-0.8-0.6c6.8-1.6,6.8-6.8,6.7-12.2c1.9,5.4,3.5,10.7,5.3,15.9c1,3,1.4,6,1.4,9.1c-0.1,4.7,0,9.4,0,14.2
		c0,0.6,0.1,1.2,0.1,1.9c4.1,0,7.9,0,12,0c0-0.7,0-1.3,0-2c0-5.8,0-11.5,0-17.3c0-0.8,0.1-1.6,0.4-2.3c2.6-6.9,5.2-13.8,7.8-20.8
		C294.9,167.4,296.1,164.2,297.4,160.7z M202.1,160.7c-1.4,11.7-2.7,23.2-4.1,34.8c-0.9-5.3-1.5-10.6-2.1-15.9
		c-0.7-5.9-1.4-11.8-2.1-17.6c-0.1-0.4-0.6-1.1-0.9-1.1c-3.6-0.1-7.2-0.1-10.9-0.1c0,1,0,1.7,0,2.4c-1.4-0.6-2.7-1.4-4.1-1.8
		c-4-1.3-8.2-1.2-12.3-0.4c-6.1,1.2-8.4,4.1-8.4,10.3c0,11,0,22,0,33c0,3.5,1.5,6.1,4.7,7.6c4.5,2.3,9.3,2.5,14.1,1.4
		c6.1-1.3,9.1-4.6,8.9-11c-0.2-5.7,0-11.4,0-17.1c0-0.5,0-1,0-1.5c0.5,1.8,0.8,3.6,1.1,5.4c1.1,7.6,2.1,15.2,3.2,22.8
		c0.1,0.4,0.8,1.1,1.3,1.1c5,0.1,10,0.1,15,0c0.4,0,1.1-0.6,1.2-1c1-6.5,1.9-13.1,2.8-19.6c1.1-7.8,2.2-15.7,3.3-23.5
		c0.4-2.7,0.7-5.4,1.1-8.2c-0.4-0.1-0.7-0.1-0.9-0.1C209.5,160.7,206,160.7,202.1,160.7z M24.3,186.2c3.1-2.2,6.1-3.9,8.6-6.2
		c4.1-3.8,3.6-10.6-0.8-13.4c-4.1-2.6-8.5-2.7-12.8-0.3c-3.9,2.2-6.1,7-5.2,11.6c0.5,2.7,1.4,5.4,2.1,8.3c-1.2,0.7-2.6,1.4-3.9,2.2
		c-3.2,1.9-6.3,4.1-8.4,7.3c-4.1,6.3-2.8,16.8,8.3,18.2c5.8,0.7,11.2-0.7,16-4.1c1-0.7,1.9-1.4,2.9-2.1c10.9,8.4,14.4,8.6,22.9,0.9
		c0,1.6,0,3.1,0,4.7c5.3,0,10.5,0,15.6,0c0.6,0,1.3,0,1.9-0.1c5.6-0.7,10.4-4.6,10.2-11.4c-0.3-9.9-0.3-19.8,0-29.7
		c0.2-6.7-4.8-10.6-9.7-10.9c-4.8-0.3-9.7-0.2-14.5-0.3c-1.1,0-2.3,0-3.6,0c0,0.9,0,1.6,0,2.3c0,13.5,0,27,0,40.4
		c0,0.7-0.1,1.4-0.4,1.9c-1.5,2-3.5,3.2-6.2,3.2c-5-0.1-8.2-3-11.1-6.1c3.2-5,6.3-9.8,9.4-14.7c1.2-1.9,2.9-3.1,5.2-3.3
		c1.3-0.1,1.7-0.7,1.3-2c-5.3,0-10.7,0-16,0c-0.1,1.7-0.1,1.7,1.6,1.9c2.7,0.4,3.5,1.6,2.9,4.3c-1.1,4.3-3.6,7.7-6.8,11.3
		C30.5,195.2,27.3,190.6,24.3,186.2z M126,178.9c0-3.3,0.2-6.5,0-9.6c-0.3-4.7-2.5-7.2-7.1-8.3c-4.2-1-8.5-0.9-12.6,0.3
		c-4.5,1.3-6.6,4.2-6.7,8.9c0,1.4,0.1,2.9,0,4.3c-0.4,4,1.3,7.1,4.1,9.8c3.2,3.2,6.5,6.4,9.6,9.7c0.9,1,1.6,2.4,1.8,3.7
		c0.3,2,0.1,4.1,0.1,6.2c0,1.2-0.7,1.8-1.8,1.9c-1.7,0.2-2.7-0.6-2.7-2.4c0-3.7,0-7.5,0-11.2c-3.8,0-7.4,0-11,0c0,3.9,0,7.6,0,11.3
		c0,4.7,2.3,7.9,6.7,9.3c4.6,1.5,9.3,1.4,14,0.1c4.3-1.2,6.4-3.9,6.6-8.3c0.1-2.2,0-4.5,0.1-6.7c0.2-3.7-1.1-6.9-3.7-9.5
		c-3-3-5.9-6-8.9-8.9c-2-1.9-3.3-4.1-3.1-7c0.1-1,0.1-2,0-2.9c-0.1-1.3,0.5-1.8,1.7-1.8c1.2,0,2,0.4,2,1.8c0,2.5,0,5.1,0,7.6
		c0,0.6,0.1,1.2,0.1,1.8C118.8,178.9,122.3,178.9,126,178.9z M144.1,179.3c0.6,0,1,0.1,1.4,0.1c2.9,0,5.8,0,8.6-0.1
		c0.4,0,1-0.7,1-1.2c0.1-2.9,0.2-5.9,0-8.8c-0.3-4.6-2.6-7.2-7.1-8.4c-3.6-0.9-7.2-0.9-10.8-0.2c-6.3,1.2-8.6,4.1-8.6,10.5
		c0,10.9,0,21.9,0,32.8c0,3.1,1.2,5.6,3.8,7.1c5.9,3.4,12.1,3.7,18.3,0.6c3.1-1.6,4.6-4.2,4.5-7.7c-0.1-3.3,0-6.7,0-10
		c0-0.6-0.1-1.2-0.1-1.9c-3.7,0-7.2,0-10.9,0c0,4.2,0,8.3,0,12.3c0,1.1-0.5,1.7-1.6,1.7c-1.1,0-1.8-0.4-1.8-1.8
		c0-11.7,0-23.5,0-35.2c0-1.1,0.5-1.4,1.4-1.5c1.3-0.1,2,0.3,2,1.8C144,172.8,144.1,176,144.1,179.3z M85.1,213.1c4,0,7.8,0,11.8,0
		c0-17.5,0-34.9,0-52.3c-4,0-7.8,0-11.8,0C85.1,178.2,85.1,195.6,85.1,213.1z M52.2,186.3c-2.2,0-3.9,0.8-5,2.6
		c-2.8,4.5-5.6,8.9-8.5,13.5c2.5,3,6.1,4.8,9.4,4.5c1.9-0.2,4-1.7,4-3.2C52.2,198,52.2,192.2,52.2,186.3z M155.4,190.4
		c0-3,0-5.9,0-8.9c-4.3,0-8.5,0-12.8,0c0,3,0,5.9,0,8.9C146.8,190.4,151,190.4,155.4,190.4z M229.1,190.2c0,4.9,0,9.6,0,14.4
		c2.7,0,5.3,0,7.9,0c0-4.8,0-9.6,0-14.4C234.4,190.2,231.9,190.2,229.1,190.2z M34.2,181.9c-2.6,1.7-4.9,3.3-7.5,5
		c2.3,3.5,4.6,6.9,7,10.4c0.2,0,0.5,0,0.7,0.1c1.4-2.7,3-5.4,4.1-8.2c0.8-2,0.3-2.7-1.9-2.9c-0.8-0.1-1.6-0.1-2.5-0.2
		C34.2,184.7,34.2,183.4,34.2,181.9z M271,212.8c0.2-0.1,0.4-0.2,0.6-0.3c0-5.6,0-11.3,0-16.9c0-5.2-2.6-9.6-3.5-13.8
		c-1.1,0.9-2.4,1.8-3.7,2.9c3.5,2.1,4.2,5.4,4.1,9.1c-0.1,3.2-0.1,6.3,0,9.5c0.1,2.3,0.3,4.7,0.8,7C269.5,211.2,270.4,212,271,212.8
		z M229.1,169.7c0,3.5,0,6.8,0,10.1c2.7,0,5.3,0,7.9,0c0-3.4,0-6.7,0-10.1C234.4,169.7,231.8,169.7,229.1,169.7z M118.8,181
		c-0.1,0.2-0.2,0.3-0.3,0.5c2.8,2.5,5.7,5,8.2,7.2c0-2.1,0-4.8,0-7.6C124,181,121.4,181,118.8,181z M106.8,190.4
		c-2.8-3-5.3-5.7-7.8-8.4c0,2.8,0,5.5,0,8.4C101.6,190.4,104,190.4,106.8,190.4z"/>
	<path class="st0" d="M140,146.4c1.9-3.8,3.6-7.3,5.3-10.8c2.2-4.4,4.4-8.9,6.6-13.3c0.3-0.6,1.1-1,1.6-1.5c0.3,0.6,0.8,1.2,0.9,1.9
		c1.4,8.9,2.8,17.7,4.1,26.6c0.6,3.7,0.8,3.9,4.4,4.5c0.3,0.1,0.6,0.2,0.9,0.7c-3.9,0-7.7,0-11.4,0c0-1.9,0.2-3.6,0-5.2
		c-0.6-5.4-1.4-10.7-2.2-16.6c-0.5,0.9-0.8,1.4-1.1,1.9c-3,6.1-6.1,12.1-9.1,18.2c-0.4,0.7-1,1.3-1.6,1.9c-0.5-0.6-1.2-1.2-1.6-1.9
		c-3-5.9-6-11.8-9-17.7c-0.3-0.5-0.5-1-1-1.9c-0.4,2.8-0.7,5.1-1,7.5c-0.4,3.4-0.8,6.7-1.3,10.1c-0.3,2.2,0,2.6,2.2,3
		c0.5,0.1,1,0.2,1.4,0.4c0,0.1,0,0.3-0.1,0.4c-7,0-14.1,0-20.7,0c-0.1-1.2-0.1-2.3-0.4-3.2c-0.7-2.1-1.7-4.2-2.4-6.3
		c-0.4-1-0.9-1.3-1.9-1.3c-2.9,0-5.8,0-8.6,0.1c-0.6,0-1.4,0.4-1.6,0.9c-1,2.1-1.8,4.2-2.6,6.4c-0.7,2.1-0.4,2.4,1.8,2.8
		c0.3,0.1,0.7,0.2,0.9,0.7c-3.9,0-7.7,0-11.6,0c0-0.1-0.1-0.2-0.1-0.3c0.3-0.2,0.6-0.4,0.9-0.4c2.5,0.1,3.5-1.5,4.4-3.5
		c2.5-5.8,5-11.6,7.5-17.4c1.6-3.6,3.1-7.2,4.7-10.8c0.3-0.6,0.8-1,1.3-1.5c0.5,0.5,1.2,0.9,1.4,1.5c3.8,8.8,7.5,17.5,11.3,26.3
		c0.5,1.1,1,2.1,1.6,3.1c1.3,2.1,2.7,2.8,5,2.1c0.7-0.2,1.6-1.4,1.7-2.2c0.8-4.1,1.4-8.3,2.1-12.4c0.9-5.5,1.7-10.9,2.6-16.4
		c0.1-0.7,0.6-1.2,0.9-1.9c0.5,0.5,1.3,0.9,1.6,1.5c3.8,7.5,7.5,15,11.3,22.5C139.3,145.3,139.6,145.7,140,146.4z M98.4,129.5
		c-1.7,4.2-3.1,7.9-4.7,11.8c3.2,0,6,0,9.2,0C101.5,137.4,100.1,133.7,98.4,129.5z"/>
	<path class="st0" d="M202.1,121.9c-3.7,1.5-3.7,1.5-3.7,5.5c0,2.6,0,5.2,0,7.8c0,0.2,0.1,0.3,0.2,0.6c5.8,0,11.5,0,17.4,0
		c0-3.8,0-7.4,0-11.1c0-1.4-1.1-1.9-2.4-2.1c-0.6-0.1-1.3-0.2-1.9-0.2c0-0.2,0-0.3,0-0.5c4.8,0,9.6,0,14.3,0c0,0.1,0,0.3,0.1,0.4
		c-0.4,0.1-0.8,0.2-1.1,0.3c-2.1,0.3-2.6,0.8-2.6,2.9c0,8.3,0,16.6,0,24.9c0,2.8,0.5,3.2,3.3,3.5c0.5,0.1,1,0.2,1.5,0.3
		c0,0.1,0,0.3-0.1,0.4c-4.9,0-9.8,0-14.7,0c0-0.1-0.1-0.3-0.1-0.4c0.4-0.1,0.9-0.4,1.3-0.4c1.5,0,2.3-0.8,2.3-2.2c0-4.2,0-8.5,0-13
		c-0.8,0-1.8,0-2.8,0c-4.4,0-8.7,0-13.1,0c-1.1,0-1.7,0.3-1.6,1.5c0.1,3.6,0.1,7.1,0.3,10.7c0.1,2.5,0.5,2.7,3.1,3
		c0.5,0,1.1,0.2,1.6,0.3c0,0.1,0,0.3,0,0.4c-4.9,0-9.8,0-14.7,0c0-0.1,0-0.2-0.1-0.3c0.3-0.1,0.7-0.4,1-0.4c2,0.1,2.6-1.2,2.6-2.9
		c0.1-4.2,0.2-8.4,0.2-12.6c0-4.1,0-8.2,0-12.3c0-2.8-0.6-3.3-3.4-3.6c-0.3,0-0.6-0.1-0.8-0.2c-0.1,0-0.1-0.2-0.3-0.5
		C192.5,121.9,197.3,121.9,202.1,121.9z"/>
	<path class="st0" d="M295.7,124.3c-0.1-0.3-0.2-0.6-0.3-1c-1-4.4-4.3-6.5-8.7-5.6c-4,0.8-5.8,5-3.3,8.2c1.3,1.7,3.1,3.1,4.7,4.5
		c1.9,1.6,3.9,3.1,5.7,4.8c2,1.9,3.5,4.3,3.8,7.2c0.9,7.2-3.6,12.7-10.9,13c-2.9,0.1-5.8-0.4-8.7-0.8c-1.4-0.2-2-1-1.9-2.6
		c0.2-1.8,0.1-3.7,0.2-5.5c0-0.7,0.3-1.4,0.4-2.1c0.2,0,0.3,0,0.5,0c0.1,0.5,0.3,1.1,0.3,1.6c0.6,4.6,3.7,7.3,8.4,7
		c5.3-0.3,8.1-5.4,5.2-9.9c-1.2-1.8-3-3.2-4.6-4.6c-2.2-2.1-4.6-4-6.7-6.2c-2.3-2.5-3.1-5.7-2.5-9.2c0.7-3.9,4-7.1,8.5-7.6
		c3.1-0.3,6.4,0.2,9.6,0.4c0.9,0.1,1.3,0.6,1.3,1.6c-0.1,1.8-0.1,3.6-0.2,5.3c0,0.5-0.2,1-0.3,1.5
		C296.1,124.3,295.9,124.3,295.7,124.3z"/>
	<path class="st0" d="M2.9,144.5c0.3,1.3,0.5,2.7,1,4c1.2,3.2,4.1,4.8,7.9,4.5c3.1-0.2,5.4-2.1,6-4.8c0.5-2.4-0.3-4.6-1.9-6.4
		c-1.2-1.4-2.7-2.5-4.1-3.7c-1.8-1.6-3.7-2.9-5.3-4.7C5.2,131.9,4,130,3.4,128c-2-6.1,1.8-11.8,8.4-12.6c3-0.4,6.2,0.2,9.2,0.4
		c1.1,0.1,1.6,0.6,1.4,1.8c-0.2,2.2-0.3,4.4-0.4,6.6c-0.2,0-0.3,0.1-0.5,0.1c-0.1-0.3-0.3-0.7-0.4-1c-0.9-4.9-5.9-7.3-10.4-5.1
		C8,119.7,7,123.2,9,125.8c1.2,1.7,3,3,4.5,4.4c2.3,2,4.8,3.8,6.8,6.1c4.1,4.6,4.2,11.3,0.3,15.4c-2.9,3.1-6.7,4-10.7,3.8
		c-2.3-0.1-4.5-0.7-6.8-1.1c-1-0.2-1.5-0.9-1.4-2c0.1-2.2,0.2-4.4,0.3-6.5c0-0.5,0.3-1,0.4-1.4C2.6,144.4,2.8,144.5,2.9,144.5z"/>
	<path class="st0" d="M259,139.2c0.4-0.1,0.8-0.2,1.3-0.3c4-0.5,6.6-3.9,6.2-8.1c-0.4-4.3-3.7-7.4-7.6-7.1c-1.1,0.1-2,0.2-2,1.7
		c0.1,8.4,0.1,16.8,0.3,25.2c0,2.7,0.4,2.9,3.2,3.2c0.5,0.1,1.1,0.2,1.6,0.3c0,0.1,0,0.3-0.1,0.4c-4.9,0-9.7,0-14.6,0
		c0-0.1-0.1-0.2-0.1-0.3c0.5-0.1,0.9-0.4,1.4-0.4c1.5,0,2-0.9,2.1-2.2c0.1-2.3,0.3-4.6,0.3-6.9c0-5.9,0-11.7,0-17.6
		c0-3.3-0.1-4.4-3.9-4.6c-0.2,0-0.4-0.2-0.8-0.4c0.5-0.2,0.8-0.5,1-0.5c5.9,0.1,11.7-0.1,17.6,0.3c4.6,0.3,7.5,3.6,7.4,7.6
		c-0.1,5.2-4.1,9.6-9.4,10.2c-1.3,0.1-2.5,0-3.8,0C259,139.7,259,139.5,259,139.2z"/>
	<path class="st0" d="M78.4,128.1c-1-3.3-1.3-3.6-4.9-3.7c-1.6,0-3.2-0.1-4.8-0.1c-0.9,0-1.2,0.3-1.2,1.2c0,3.1,0,6.2,0.1,9.3
		c0,0.4,0.8,1.1,1.2,1.1c2.5,0,4.9,0,7.4-0.2c0.9-0.1,1.7-0.6,2.8-1c-0.2,2.5-0.5,4.9-0.7,7.4c-0.4-0.2-0.6-0.3-0.6-0.4
		c-1-3.3-1-3.3-4.5-3.4c-1.5,0-3-0.1-4.5-0.1c-0.9,0-1.2,0.3-1.2,1.2c0,3.2,0,6.3,0,9.5c0,1.7,0.9,2.9,2.6,3.1
		c2.1,0.2,4.2,0.2,6.4,0.1c1.8-0.1,2.9-1.2,3.3-3c0.1-0.4,0.3-0.8,0.7-1.2c0.4,2.2,0.3,4.4-0.6,6.4c-0.2,0.4-1.3,0.6-2,0.6
		c-6.5,0-13-0.1-19.5-0.2c-0.2,0-0.5-0.1-1.2-0.3c0.8-0.3,1.1-0.6,1.4-0.6c2,0.1,2.6-1.1,2.7-2.8c0.1-3.1,0.2-6.2,0.2-9.3
		c0-5.1,0-10.1,0-15.2c0-3.2-0.4-3.7-3.6-4c-0.3,0-0.6-0.2-0.9-0.3c0-0.2,0-0.3,0-0.5c7.5,0,15,0,22.7,0c-0.2,1.9-0.4,4.1-0.6,6.3
		C78.7,128.1,78.5,128.1,78.4,128.1z"/>
	<path class="st0" d="M183.8,129.1c-0.2-0.4-0.3-0.6-0.4-0.9c-0.7-5.5-7.8-6-11-3.4c-1.8,1.5-2.1,4.4-0.3,6.1c1.2,1.2,2.7,2.1,4.2,3
		c1.9,1.3,4,2.4,5.7,3.8c3.2,2.7,4.3,6.4,3.1,10.4c-1.2,4-4.2,6.4-8.3,6.8c-3.2,0.3-6.5-0.1-9.7-0.4c-1.6-0.1-2.2-1.2-2-2.8
		c0.2-1.5,0.2-3,0.3-4.5c0-0.5,0.2-1,0.3-1.5c0.2,0,0.4,0,0.5,0c0.2,0.8,0.3,1.6,0.5,2.4c0.7,3.2,3.7,5.1,7.7,4.9
		c3.2-0.1,5.4-1.9,5.9-4.8c0.3-2.2-0.4-4-2.2-5.3c-1.6-1.2-3.3-2-4.9-3.2c-1.8-1.3-3.8-2.6-5.2-4.2c-3.6-4.3-2.3-10.3,2.6-12.9
		c4.2-2.2,8.7-1.8,13.1-0.9c0.3,0.1,0.8,0.5,0.8,0.7c0,2-0.1,4-0.2,6C184.3,128.7,184.1,128.8,183.8,129.1z"/>
	<path class="st0" d="M54.7,121.8c0,2.1,0,4.3,0,6.5c-0.2,0.1-0.3,0.2-0.5,0.3c-0.5-4.3-3.7-3.9-6.5-4c-1.5-0.1-3.1,0-4.7,0
		c-0.1,0.4-0.1,0.8-0.1,1.2c0,8,0,16,0.1,24c0,0.6,0.1,1.3,0.1,1.9c0.2,1.5,0.9,2.3,2.5,2.3c0.7,0,1.5,0.2,2.2,0.3
		c0,0.2,0,0.3-0.1,0.5c-4.9,0-9.8,0-14.7,0c0-0.1-0.1-0.2-0.1-0.4c0.4-0.1,0.9-0.4,1.3-0.4c1.5,0,2.2-0.9,2.2-2.3c0-9,0-17.9,0-27.1
		c-1.6,0-3.4,0-5.3,0c-0.6,0-1.1,0.1-1.7,0.1c-2.2-0.1-4,0.5-4.8,2.8c-0.1,0.2-0.3,0.3-0.4,0.4c-0.2-0.1-0.4-0.1-0.5-0.2
		c0.4-2,0.7-4,1.2-6c0-0.2,0.6-0.4,1-0.4c3.1,0.2,6.2,0.5,9.3,0.5C41.6,121.9,48.2,121.8,54.7,121.8z"/>
	<path class="st0" d="M229.1,121.9c4.6,0,9.2,0,13.8,0c0,0.1,0,0.3,0.1,0.4c-0.4,0.1-0.9,0.2-1.3,0.3c-1.7,0.1-2.5,1-2.5,2.7
		c0,5.7,0,11.4,0,17.1c0,2.8,0,5.6,0.1,8.5c0.1,2.3,0.6,2.8,2.9,3c0.6,0.1,1.3,0.2,1.9,0.3c0,0.2,0,0.3,0,0.5c-4.9,0-9.8,0-14.7,0
		c0-0.1,0-0.2-0.1-0.3c0.3-0.1,0.7-0.4,1-0.4c2,0,2.6-1.1,2.6-2.9c0.1-7.5,0.1-15,0.2-22.4c0-1,0-2,0-2.9c-0.1-2.2-0.7-2.8-2.9-3.1
		c-0.3,0-0.6-0.1-0.9-0.2C229.1,122.2,229.1,122.1,229.1,121.9z"/>
	<path class="st0" d="M195.8,227.4c0-0.7,0-1.3,0-2.2c2,0,4,0,6,0c6.6,0,13.1,0.1,19.7,0.1c10.4,0,20.8,0,31.3,0.1
		c10.8,0.1,21.6,0.1,32.5,0.2c0.3,0,0.7-0.1,1,0c0.2,0.1,0.6,0.4,0.6,0.7c0,0.2-0.3,0.6-0.5,0.7c-0.3,0.1-0.7,0.1-1,0.1
		c-5.4,0-10.7,0.1-16.1,0.1c-21.1,0.1-42.1,0.2-63.2,0.2C202.6,227.4,199.3,227.4,195.8,227.4z"/>
	<path class="st0" d="M103,225.2c0,0.8,0,1.4,0,2.2c-2.6,0-5.2,0-7.7,0c-6.6,0-13.2-0.1-19.9-0.1c-10.3,0-20.6,0-30.9-0.1
		c-10.4,0-20.7-0.1-31.1-0.3c-0.5,0-1-0.4-1.5-0.6c0.5-0.3,1-0.7,1.5-0.8c5.3-0.1,10.6-0.1,15.9-0.1c21.6-0.1,43.3-0.2,64.9-0.2
		C97.1,225.2,99.9,225.2,103,225.2z"/>
	<path class="st0" d="M152.6,109.2c3.7,0,7.5-0.2,11.2,0c14.8,0.9,29.5,1.7,44.2,2.8c8.2,0.6,16.3,1.8,24.5,2.7c0.2,0,0.4,0,0.5,0.1
		c0.3,0.3,0.7,0.6,1,0.9c-0.4,0.2-0.8,0.6-1.2,0.5c-4.2-0.4-8.3-1-12.5-1.4c-9.3-0.8-18.7-1.8-28-2.3c-12.7-0.6-25.4-0.8-38.1-1.2
		C152.6,111.4,152.5,111.2,152.6,109.2z"/>
	<path class="st0" d="M146.1,109c0.3,1.9-0.4,2.5-2.1,2.5c-20.4-0.2-40.7,1-61,2.9c-5.6,0.5-11.2,1.3-16.8,1.9c-0.5,0-1-0.4-1.5-0.5
		c0.4-0.3,0.9-0.8,1.4-0.9C73,114,80,113,87,112.4c12.7-1.1,25.5-2,38.2-2.8c6.4-0.4,12.8-0.4,19.1-0.6
		C144.9,109,145.5,109,146.1,109z"/>
	<path class="st0" d="M165.8,220.8c1.7,0,3.9,0,6.1,0c1.4,0,2.6,0.6,3.1,2c0.5,1.4-0.2,2.4-1.2,3.4c-0.3,0.3-0.6,0.5-1.4,1.1
		c1.6,1.5,3,2.8,4.6,4c0.6,0.5,1.6,0.8,2.3,0.7c0.4-0.1,0.7-1.3,0.7-2c0.1-2.2,0.1-4.4,0-6.6c0-0.9-0.5-1.8-0.8-2.7
		c2.2,0,4.9,0,7.6,0c0,0.7,0,1.4,0,1.8c-1.4-0.3-2.7-0.6-4.2-1c0,1.6,0,2.8,0,4.1c1.3,0,2.6,0,3.9,0c0,0.7,0,1.4,0,1.8
		c-1.3-0.3-2.5-0.6-4.4-1c0.4,2.1,0.3,3.8,1.1,5c0.6,0.9,3.1,0.1,4.1-1c0.2,2.2,0,2.4-2,2.4c-2.2,0-4.4-0.1-6.5,0
		c-2.8,0.2-4.8-1-6.4-3.2c-1.3-1.9-1.4-1.8-3-1.6c-0.6,2.7-0.3,3.9,1.7,4.7c-2,0-3.7,0-5.1,0c0.2-0.8,0.7-1.6,0.7-2.5
		c0.1-2.4,0.1-4.7,0-7.1C166.6,222.3,166.1,221.5,165.8,220.8z M169.1,221.9c0,1.1,0,2,0,3c0,0.8-0.4,1.8,1,1.9
		c1.2,0.1,2.1-0.2,2.5-1.5C173.3,223,171.8,221.5,169.1,221.9z"/>
	<path class="st0" d="M140.3,232.6c-1.5,0-3,0-4.1,0c0.3-0.8,0.9-1.6,0.9-2.5c0.1-2.6,0.1-5.2,0.1-7.8c0-0.6,0.1-1.2,0.2-2.1
		c3.5,3.1,6.8,6,10.1,9c0-2.5,0.1-4.7-0.1-7c0-0.5-0.8-0.9-1.2-1.4c1.2,0,2.6,0,3.6,0c-0.2,0.8-0.6,1.6-0.7,2.5
		c-0.1,2.6-0.1,5.2-0.1,7.8c0,0.6-0.1,1.1-0.2,2.2c-3.6-3.1-6.8-5.9-10.4-9c0.1,2.6,0.2,4.8,0.4,7.1
		C139,231.7,139.8,232.1,140.3,232.6z"/>
	<path class="st0" d="M123.2,220.5c-0.1,1.6-0.1,2.5-0.2,3.4c-0.8-1.6-2.2-2.5-3.8-2.3c-1.5,0.1-3.3,0.4-4.5,1.2
		c-2.1,1.5-1.8,5.3,0.1,7.3c2.4,2.5,5.8,2.4,8.2-0.1c0.3,2.1-0.2,2.9-2.2,3c-1.6,0-3.2,0-4.8-0.3c-3.9-0.8-5.6-3.1-5.4-6.6
		c0.2-2.9,2.8-5.2,6.4-5.4C119,220.4,121,220.5,123.2,220.5z"/>
	<path class="st0" d="M133,227.9c-1-1.1-3.6-1.7-3.7-0.9c-0.2,1.4-0.3,3,0.2,4.3c0.3,1,3.4,0.2,4.3-0.9c0.6,1.8,0.2,2.4-1.6,2.4
		c-2.2,0-4.4,0-6.4,0c1.7-3.4,0.6-7,0.8-10.3c0-0.5-0.6-1.1-1-1.7c2.4,0,5.1,0,8,0c0,0.5-0.1,1.3-0.1,1.6c-1.4-0.3-2.7-0.6-4.3-0.9
		c0,1.5,0,2.7,0,4.1c1.3,0,2.7,0,4.2,0C133.2,226.3,133.1,227.1,133,227.9z"/>
	<path class="st0" d="M156.6,221.5c-1.8,0.3-3.3,0.5-4.8,0.8c-0.1-1.8-0.1-1.7,2-1.6c3.3,0.1,6.5,0,10,0c0,0.7,0,1.4,0,1.8
		c-1.5-0.3-2.9-0.6-4.6-1c0,3.6,0,6.8,0.1,9.9c0,0.4,0.9,0.7,1.5,1.2c-1.8,0-3.5,0-5.2,0c0.3-0.5,1-1,1-1.4
		C156.7,228.1,156.6,225,156.6,221.5z"/>
	<path class="st0" d="M149.2,112.6c-1-0.1-1.7-0.8-1.6-2c0-1.2,0.5-2.2,1.8-2.4c0.9-0.2,1.9,1.2,1.9,2.4
		C151.3,111.8,150.6,112.6,149.2,112.6z"/>
	<path class="st0" d="M171,81.7c0.1-0.6,0.1-1.5,0.2-2.3c1.2-5.6,7-7.5,11.4-3.7c3.6,3.2,4.4,10.9,1.4,14.8
		c-1.7,2.2-4.9,2.8-7.8,1.3C172.2,89.7,171.1,86.1,171,81.7z"/>
	<path class="st0" d="M236,83.4c0.8,2.7,1.5,4.9,2.3,7.6c-1.9-0.2-3.5-0.4-5.4-0.7C233.9,88,234.8,85.9,236,83.4z"/>
	<path class="st0" d="M251.2,181.3c0-4.6,0-9.1,0-13.6c2.9-0.4,3.7,0.3,3.7,3.1c0,2.4,0,4.8,0,7.2
		C254.9,180.7,254.2,181.3,251.2,181.3z"/>
	<path class="st0" d="M173.1,186.8c0,5.6,0,11.3,0,16.9c0,1.9-0.6,2.5-2.1,2.4c-1.6,0-2-0.9-2-2.4c0-11.3,0-22.7,0-34
		c0-1.5,0.4-2.3,2-2.3c1.6,0,2.1,0.5,2.1,2.4C173.1,175.6,173.1,181.2,173.1,186.8z"/>
	<path class="st0" d="M66.1,206.2c0-12.9,0-25.7,0-38.5c2.6-0.4,3.4,0.3,3.4,2.9c0,10.8,0,21.6,0,32.4
		C69.6,205.6,69,206.2,66.1,206.2z"/>
	<path class="st0" d="M17.4,188.5c4,6,7.6,11.5,11.4,17.1c-2.9,2.5-6.4,4.2-10.5,4.2c-3.9,0-6.8-2.1-8.4-5.6
		c-1.6-3.6-1.2-7.2,1.3-10.2C12.9,191.9,15.3,190.3,17.4,188.5z M17,191.6c-3.9,1.9-6.5,5.7-6.2,9.3c0.3,3.3,1.9,5.8,5,7
		c3,1.2,8.2-0.2,10.3-2.5C23.1,200.8,20.1,196.2,17,191.6z"/>
	<path class="st0" d="M23,183.2c-1.5-3.3-3-6.3-2.9-9.9c0-2.4,0.7-4.4,2.9-5.4c2.2-1,4.5-0.9,6.5,0.7c2,1.6,2.4,3.8,1.8,6.2
		c-0.7,2.9-2.7,4.7-5,6.3C25.3,181.8,24.2,182.4,23,183.2z M23.5,181c2.9-1.8,5.2-3.3,5.9-6.3c0.5-1.8,0.2-3.5-1.3-4.6
		c-1.3-1-2.9-1.1-4.4-0.3c-1.6,0.8-2.1,2.5-1.9,4.1C22.2,176.1,22.9,178.4,23.5,181z"/>
</g>
</svg>
