<?xml version="1.0" encoding="utf-8"?>
<!-- Generator: Adobe Illustrator 20.1.0, SVG Export Plug-In . SVG Version: 6.00 Build 0)  -->
<svg version="1.1" id="Layer_1" xmlns="http://www.w3.org/2000/svg" xmlns:xlink="http://www.w3.org/1999/xlink" x="0px" y="0px"
	 viewBox="0 0 300 233" style="enable-background:new 0 0 300 233;" xml:space="preserve">
<style type="text/css">
	.st0{fill:#1A4B73;}
</style>
<g>
	<path class="st0" d="M181.3,0c0.5,0.8,1.3,1,2.1,1.2c10.2,3.2,16.2,10.2,18.7,20.4c5.2,21.4,10.5,42.7,15.7,64.1
		c0.9,3.7,0.8,3.9-3,3.9c-36.2,0-72.3,0-108.5,0c-21.4,0-39,13.8-44.1,34.5c-0.7,2.7-1.1,5.5-1.1,8.3c0,5.1,0,10.2,0,15.2
		c0,3.2-0.5,3.5-3.4,1.9c-6.8-3.9-11-9.8-12.9-17.4c-3-12.3-6.1-24.6-9.1-36.9c-2.5-10.4-5-20.8-7.6-31.2c-2.1-8.3-0.9-15.9,4-23
		c4-5.7,9.5-9,16.1-10.7c9.8-2.4,19.6-4.8,29.4-7.2C107.8,16,137.9,8.6,168,1.2c0.9-0.2,1.8-0.3,2.4-1.2C174,0,177.7,0,181.3,0z
		 M164.2,76.2c0.4-0.1,0.9-0.2,1.3-0.3c8.3-2,16.6-4.1,24.9-6.1c2.2-0.5,2.6-1.5,2-3.6c-2.1-8.2-4.1-16.5-6.1-24.7
		c-0.7-2.7-0.9-2.9-3.6-2.2c-7.6,1.8-15.1,3.7-22.7,5.6c-5.7,1.4-4.8,1.4-3.7,5.9c1.8,7.7,3.7,15.3,5.6,23
		C162.2,75,162.4,76.4,164.2,76.2z"/>
	<path class="st0" d="M100.3,233c-0.5-0.8-1.3-1-2.1-1.2c-11.9-4.1-19.1-13.5-19.2-25.9c-0.2-23.7-0.2-47.3,0-71
		c0.2-16.1,11.6-27,28.2-27.4c4.5-0.1,9.1,0,13.6,0c35.6,0,71.1,0,106.7,0c3,0,5.9,0.1,8.8,0.7c10.1,2.2,16.8,8.2,20.4,17.9
		c0.4,1,0.4,2.1,1.4,2.8c0,27.6,0,55.2,0,82.8c-0.9,0.6-1,1.6-1.3,2.6c-3,8.7-8.8,14.5-17.5,17.5c-0.9,0.3-2,0.4-2.6,1.3
		C191.3,233,145.8,233,100.3,233z M168.8,170.2c-23.9,0-47.8,0-71.7,0c-3.2,0-3.7,0.3-3.7,2.9c0,11.1-0.1,22.3,0,33.4
		c0.1,6.2,4.4,10.9,10.5,11.9c2,0.3,3.9,0.4,5.9,0.4c39.1,0,78.3,0,117.4,0c1.3,0,2.6,0,3.9-0.1c3.6-0.3,6.8-1.4,9.3-4.1
		c2.9-3.1,3.5-6.8,3.6-10.7c0-9.9,0-19.7,0-29.6c0-4-0.1-4.1-4.1-4.1C216.3,170.2,192.5,170.2,168.8,170.2z M168.7,143.4
		c23.6,0,47.2,0,70.8,0c0.9,0,1.8,0,2.7-0.1c0.9,0,1.7-0.5,1.7-1.5c0.2-4.9,0.7-9.9-2.2-14.3c-2.7-4.1-6.7-5.6-11.5-5.6
		c-30.9,0-61.7,0-92.6,0c-10.5,0-21.1-0.1-31.6,0c-7.3,0.1-12.4,5.2-12.6,12.5c0,1.6,0,3.2,0,4.8c0,4,0.1,4.1,4.1,4.1
		C121.2,143.4,145,143.4,168.7,143.4z"/>
</g>
</svg>
