<?xml version="1.0" encoding="utf-8"?>
<!-- Generator: Adobe Illustrator 20.1.0, SVG Export Plug-In . SVG Version: 6.00 Build 0)  -->
<svg version="1.1" id="Layer_1" xmlns="http://www.w3.org/2000/svg" xmlns:xlink="http://www.w3.org/1999/xlink" x="0px" y="0px"
	 viewBox="0 0 300 233" style="enable-background:new 0 0 300 233;" xml:space="preserve">
<style type="text/css">
	.st0{fill:#404041;}
</style>
<g>
	<path class="st0" d="M212,0c0.5,0.9,1.4,1.1,2.2,1.4c9.9,3.9,16.1,13.5,16.1,25.6c0.1,26.2,0,52.4,0,78.6c0,3.5-0.4,3.9-3.3,3.6
		c-3.2-0.3-6.3,0.3-9.4,1.4c-2.6,1-2.8,0.8-2.8-2.4c0-5.6,0-11.1,0-16.7c0-17.1,0-34.3,0-51.4c0-3.8-0.2-4-3.5-4
		c-49.8,0-99.6,0-149.3,0c-3.3,0-3.5,0.2-3.5,4c0,48.8,0,97.7,0,146.5c0,2.1,0.1,4.1,0.8,6.1c1.2,3.1,3.3,4.9,6.2,5.3
		c1.2,0.1,2.4,0.1,3.6,0.1c23.7,0,47.5,0,71.2,0c0.7,0,1.5,0,2.2,0c1.4,0,1.9,0.7,1.5,2.3c-1.2,4.5-2.3,8.9-3.4,13.4
		c-0.4,1.4-1.1,2.2-2.4,2.2c-0.5,0-1.1,0-1.6,0c-23,0-46-0.3-69,0.1c-12,0.2-21.1-8.9-23.6-19.3c-0.2-0.7-0.4-1.5-1-1.9
		c0-57.7,0-115.5,0-173.2c0.8-0.6,0.9-1.6,1.2-2.6c2.6-8.8,7.7-14.6,15.2-17.6C60.2,1,61.1,0.9,61.6,0C111.8,0,161.9,0,212,0z"/>
	<path class="st0" d="M157.3,233c-2.6,0.1-4.4-2.2-3.7-5c2.7-10.8,5.4-21.5,8.1-32.2c0.3-1.1,1-2,1.7-2.8
		c12.1-13.8,24.2-27.7,36.3-41.5c1.2-1.4,2.2-1.5,3.5,0c7.1,8.3,14.3,16.5,21.4,24.7c1.1,1.2,1.1,2.2,0,3.4
		c-12.3,14.1-24.5,28.2-36.8,42.3c-0.7,0.8-1.6,1.4-2.5,1.7c-8.9,3-17.9,6.1-26.8,9.1C158,232.8,157.6,232.9,157.3,233z
		 M169.1,199.5c-1,0-1.4,0.8-1.6,1.7c-1.3,5-2.6,9.9-3.8,14.9c-0.6,2.6,2.1,5.7,4.4,5c4.2-1.3,8.4-2.8,12.5-4.2
		c1.2-0.4,1.7-1.3,1.4-2.8c-0.6-3.3-1.2-6.7-1.7-10.1c-0.2-0.9-0.5-1.8-1.3-2.1C175.7,201.1,172.4,200.3,169.1,199.5z"/>
	<path class="st0" d="M152.3,126.1c-11.9,0-23.8,0-35.7,0c-3.2,0-3.3-0.2-3.4-3.9c0-3.6,0-7.2,0-10.7c0-3.2,0.2-3.5,3.1-3.5
		c17.4,0,34.8,0,52.1,0c6.6,0,13.2,0,19.8,0c2.8,0,3,0.3,3.1,3.5c0,3.7,0,7.5,0,11.2c0,3.1-0.3,3.4-3,3.4
		C176.3,126.1,164.3,126.1,152.3,126.1z"/>
	<path class="st0" d="M152.3,72.2c11.9,0,23.8,0,35.7,0c3.2,0,3.4,0.2,3.4,3.9c0,3.4,0,6.7,0,10.1c0,3.7-0.1,3.9-3.3,3.9
		c-7.6,0-15.2,0-22.8,0c-16.2,0-32.4,0-48.6,0c-3.2,0-3.4-0.2-3.4-3.9c0-3.2,0-6.4,0-9.6c0-4.4,0-4.4,3.9-4.4
		C128.9,72.2,140.6,72.2,152.3,72.2z"/>
	<path class="st0" d="M148.8,144c10.9,0,21.8,0,32.7,0c0.7,0,1.7-0.4,2,0.5c0.2,0.7-0.6,1.3-1.1,1.8c-4,4.6-8,9.1-11.9,13.7
		c-1,1.2-2.2,1.8-3.7,1.8c-16.9,0-33.8,0-50.8,0c-2.4,0-2.7-0.4-2.7-3.2c0-3.8,0-7.6,0-11.4c0-2.8,0.3-3.2,2.8-3.2
		C126.9,144,137.9,144,148.8,144z"/>
	<path class="st0" d="M244.9,150.4c0.1,2.4-0.6,4.5-2,6.2c-2.7,3.3-5.5,6.5-8.3,9.8c-1,1.2-1.8,1.2-2.9,0
		c-6.9-8.1-13.9-16.3-20.9-24.4c-1-1.1-0.8-2.1,0.1-3.1c2.7-3.1,5.3-6.3,8.1-9.3c3.5-3.7,8.3-3.6,11.8,0.3
		c3.9,4.4,7.7,8.8,11.5,13.2C244.1,145.2,245,147.6,244.9,150.4z"/>
	<path class="st0" d="M97.7,117.1c0,2.2,0,4.4,0,6.6c0,1.6-0.6,2.4-2,2.4c-3.8,0-7.7,0-11.5,0c-1.5,0-2.2-0.8-2.2-2.5
		c0-4.4,0-8.8,0-13.2c0-1.6,0.7-2.4,2.1-2.4c3.9,0,7.8,0,11.7,0c1.4,0,2,0.9,2,2.5C97.7,112.6,97.7,114.9,97.7,117.1z"/>
	<path class="st0" d="M82.2,81.2c0-2.2,0-4.4,0-6.6c0-1.6,0.7-2.4,2.1-2.4c3.8,0,7.5,0,11.3,0c1.4,0,2.1,0.7,2.1,2.3
		c0,4.4,0,8.8,0,13.2c0,1.5-0.6,2.3-1.9,2.3c-3.8,0-7.7,0-11.5,0c-1.4,0-2-0.9-2-2.4C82.3,85.5,82.2,83.3,82.2,81.2z"/>
	<path class="st0" d="M82.2,152.8c0-2.1,0-4.1,0-6.2c0-1.8,0.6-2.7,2.2-2.7c3.7,0,7.4,0,11.1,0c1.5,0,2.2,0.8,2.1,2.5
		c0,4.3,0,8.5,0,12.8c0,1.8-0.8,2.6-2.3,2.6c-3.6,0-7.3,0-10.9,0c-1.6,0-2.3-0.9-2.3-2.6C82.3,157.1,82.2,154.9,82.2,152.8z"/>
</g>
</svg>
