<?xml version="1.0" encoding="utf-8"?>
<!-- Generator: Adobe Illustrator 20.1.0, SVG Export Plug-In . SVG Version: 6.00 Build 0)  -->
<svg version="1.1" id="Layer_1" xmlns="http://www.w3.org/2000/svg" xmlns:xlink="http://www.w3.org/1999/xlink" x="0px" y="0px"
	 viewBox="0 0 300 233" style="enable-background:new 0 0 300 233;" xml:space="preserve">
<style type="text/css">
	.st0{fill:#1A4B73;}
</style>
<g>
	<path class="st0" d="M257.3,233c-0.9,0-1.8,0-2.7,0c-0.8-1.7-2.4-0.9-3.5-0.9c-49.2-0.1-98.5-0.1-147.7,0c-1.2,0-2.7-0.9-3.5,0.9
		c-0.9,0-1.8,0-2.7,0c0.2-0.2,0.5-0.5,0.5-0.6c-0.4-0.9-1.4-1-2.2-1.4c-6.1-3.3-9.3-8.2-9.3-15.4c0.1-66.1,0.1-132.2,0-198.2
		c0-7.1,3.2-12,9.3-15.4c0.8-0.4,2.7,0,1.8-2c0.9,0,1.8,0,2.7,0c1.1,1.9,3,0.8,4.4,0.8c35.5,0.1,71.1,0.1,106.6,0.1
		c18.3,18.3,36.7,36.7,55.1,54.9c1.8,1.8,2.4,3.6,2.4,6c-0.1,51.2-0.1,102.5,0,153.7c0,7.1-3.2,12-9.3,15.4
		C258.3,231.4,256.4,231,257.3,233z M102.6,116.5c0,27.4,0,54.9,0,82.3c0,9.7,6.8,16.9,16.3,17c39,0.1,77.9,0.1,116.9,0
		c9,0,16-7.2,16-16.3c0.1-40.3,0-80.7,0.1-121c0-2.8-0.8-3.6-3.6-3.6C236.2,75.1,224.1,75,212,75c-11.6,0-18.3-6.7-18.3-18.3
		c0-11.7-0.1-23.3,0.1-35c0-3.3-0.5-4.6-4.3-4.6c-22.9,0.2-45.8,0.1-68.7,0.1c-11.6,0-18.1,6.6-18.1,18.4
		C102.6,62.5,102.6,89.5,102.6,116.5z"/>
	<path class="st0" d="M177.2,149.5c16.2,0,32.4,0,48.6,0c4.1,0,7.3,1.4,8.9,5.5c1.4,3.5,0.3,6.3-1.9,8.7c-2.2,2.4-5.3,2.6-8.4,2.6
		c-26.3,0-52.7,0-79,0c-5.5,0-10.9,0.1-16.4,0c-6.2-0.1-10.2-3.6-10-8.7c0.2-5,4-8.2,10-8.2C145.1,149.5,161.1,149.5,177.2,149.5z"
		/>
	<path class="st0" d="M177,133c-16.1,0-32.2,0-48.2,0c-6,0-9.9-3.3-9.8-8.2c0-5,3.9-8.2,9.9-8.2c32.5,0,64.9,0,97.4,0
		c4.3,0,7.2,1.8,8.6,5.9c1.3,3.9-0.3,6.8-3.1,9.2c-1.7,1.5-3.9,1.4-6,1.4C209.5,133,193.3,133,177,133z"/>
	<path class="st0" d="M177.1,199.4c-16.1,0-32.2,0-48.2,0c-6,0-9.9-3.2-9.9-8.2c0-4.9,3.9-8.3,9.8-8.3c32.3,0,64.6,0,96.9,0
		c5.9,0,9.8,3.5,9.7,8.4c-0.1,4.8-3.9,8.1-9.6,8.1C209.6,199.4,193.4,199.4,177.1,199.4z"/>
	<path class="st0" d="M148.5,83.4c6.5,0,13-0.1,19.5,0c5.8,0.1,9.2,3.3,9.1,8.4c-0.1,4.9-3.7,8.2-9.4,8.3c-13,0.1-26.1,0.1-39.1,0
		c-5.9,0-9.8-3.6-9.7-8.5c0.1-4.8,3.8-8.1,9.5-8.1C135.2,83.3,141.9,83.4,148.5,83.4z"/>
</g>
</svg>
